<svg width="16" height="16" viewBox="0 0 16 16" fill="none" xmlns="http://www.w3.org/2000/svg">
<path fill-rule="evenodd" clip-rule="evenodd" d="M5.14286 1.71429C4.57714 1.71429 4.13371 2.05829 3.85943 2.47086C3.58171 2.88686 3.42857 3.42972 3.42857 4C3.42857 4.57029 3.58171 5.11314 3.85943 5.52914C4.13371 5.94057 4.57714 6.28572 5.14286 6.28572C5.70857 6.28572 6.152 5.94171 6.42629 5.52914C6.704 5.11314 6.85714 4.57029 6.85714 4C6.85714 3.42972 6.704 2.88686 6.42629 2.47086C6.152 2.05943 5.70857 1.71429 5.14286 1.71429ZM10.8571 1.71429C10.2914 1.71429 9.848 2.05829 9.57371 2.47086C9.296 2.88686 9.14286 3.42972 9.14286 4C9.14286 4.57029 9.296 5.11314 9.57371 5.52914C9.848 5.94057 10.2914 6.28572 10.8571 6.28572C11.4229 6.28572 11.8663 5.94171 12.1406 5.52914C12.4183 5.11314 12.5714 4.57029 12.5714 4C12.5714 3.42972 12.4183 2.88686 12.1406 2.47086C11.8663 2.05943 11.4229 1.71429 10.8571 1.71429ZM1.71429 6.85714C1.14857 6.85714 0.705143 7.20114 0.430857 7.61372C0.153143 8.02972 0 8.57257 0 9.14286C0 9.71314 0.153143 10.256 0.430857 10.672C0.705143 11.0834 1.14857 11.4286 1.71429 11.4286C2.28 11.4286 2.72343 11.0846 2.99771 10.672C3.27543 10.256 3.42857 9.71314 3.42857 9.14286C3.42857 8.57257 3.27543 8.02972 2.99771 7.61372C2.72343 7.20229 2.28 6.85714 1.71429 6.85714ZM8 6.85714C6.62857 6.85714 5.61257 7.59314 4.96343 8.50629C4.32229 9.40571 4 10.5223 4 11.4286C4 12.4846 4.63429 13.2194 5.41257 13.6594C6.17829 14.0937 7.13829 14.2857 8 14.2857C8.86171 14.2857 9.82171 14.0949 10.5874 13.6594C11.3646 13.2183 12 12.4846 12 11.4286C12 10.5223 11.6777 9.40571 11.0366 8.50629C10.3886 7.592 9.37257 6.85714 8 6.85714ZM14.2857 6.85714C13.72 6.85714 13.2766 7.20114 13.0023 7.61372C12.7246 8.02972 12.5714 8.57257 12.5714 9.14286C12.5714 9.71314 12.7246 10.256 13.0023 10.672C13.2766 11.0834 13.72 11.4286 14.2857 11.4286C14.8514 11.4286 15.2949 11.0846 15.5691 10.672C15.8469 10.256 16 9.71314 16 9.14286C16 8.57257 15.8469 8.02972 15.5691 7.61372C15.2949 7.20229 14.8514 6.85714 14.2857 6.85714Z" fill="#E01C5B"/>
</svg>
