<svg width="20" height="20" viewBox="0 0 20 20" fill="none" xmlns="http://www.w3.org/2000/svg">
<g clip-path="url(#clip0_342_498)">
<path d="M20.0001 5.70005V4.49171C20.0001 4.00548 19.8069 3.53917 19.4631 3.19535C19.1193 2.85154 18.653 2.65838 18.1667 2.65838H15.9251L15.7001 1.29171C15.6405 0.928957 15.4532 0.599439 15.172 0.362595C14.8909 0.12575 14.5343 -0.00282955 14.1667 4.72472e-05H11.1417C10.7755 -0.00084059 10.421 0.128641 10.1416 0.36531C9.86216 0.601979 9.6761 0.930379 9.61672 1.29171L9.39172 2.65838H7.15006C6.66383 2.65838 6.19751 2.85154 5.85369 3.19535C5.50988 3.53917 5.31672 4.00548 5.31672 4.49171V5.70005H20.0001ZM10.8334 1.53338C10.8453 1.46498 10.8812 1.40306 10.9347 1.35876C10.9881 1.31446 11.0556 1.29069 11.1251 1.29171H14.1667C14.2361 1.29069 14.3037 1.31446 14.3571 1.35876C14.4106 1.40306 14.4465 1.46498 14.4584 1.53338L14.6501 2.70005H10.6501L10.8334 1.53338ZM13.2834 6.95005V8.16671C13.2834 8.33247 13.2175 8.49145 13.1003 8.60866C12.9831 8.72587 12.8241 8.79171 12.6584 8.79171C12.4926 8.79171 12.3337 8.72587 12.2164 8.60866C12.0992 8.49145 12.0334 8.33247 12.0334 8.16671V6.95005H5.31672V10.9167C5.31672 11.1575 5.36414 11.3959 5.45628 11.6183C5.54841 11.8407 5.68345 12.0428 5.85369 12.2131C6.02393 12.3833 6.22604 12.5184 6.44847 12.6105C6.6709 12.7026 6.9093 12.75 7.15006 12.75H18.1667C18.653 12.75 19.1193 12.5569 19.4631 12.2131C19.8069 11.8693 20.0001 11.4029 20.0001 10.9167V6.95005H13.2834ZM14.3251 15.7417L11.8251 16.575C11.7926 16.5732 11.7603 16.5809 11.7322 16.5972C11.7041 16.6135 11.6813 16.6377 11.6667 16.6667C11.5516 16.9165 11.367 17.1279 11.135 17.2757C10.903 17.4234 10.6334 17.5013 10.3584 17.5H7.50006C7.40502 17.5 7.31388 17.4623 7.24668 17.3951C7.17947 17.3279 7.14172 17.2368 7.14172 17.1417C7.14172 17.0467 7.17947 16.9555 7.24668 16.8883C7.31388 16.8211 7.40502 16.7834 7.50006 16.7834H10.3667C10.5568 16.7834 10.7391 16.7079 10.8735 16.5735C11.0079 16.4391 11.0834 16.2568 11.0834 16.0667C11.0834 15.8766 11.0079 15.6944 10.8735 15.56C10.7391 15.4256 10.5568 15.35 10.3667 15.35H7.86672C7.04032 14.7176 6.03971 14.354 5.00006 14.3084H3.54172C3.09586 14.3106 2.65657 14.4161 2.25839 14.6167L0.100056 15.6917C0.0734259 15.7058 0.0504933 15.726 0.0331186 15.7506C0.0157439 15.7752 0.00441664 15.8036 5.57981e-05 15.8334V19.6917C-0.000759429 19.724 0.00737207 19.7559 0.0235504 19.7838C0.0397288 19.8118 0.0633231 19.8347 0.0917225 19.85C0.119593 19.8661 0.151207 19.8746 0.183389 19.8746C0.215571 19.8746 0.247186 19.8661 0.275056 19.85L2.57506 18.4167C2.66545 18.3585 2.76754 18.3208 2.87411 18.3064C2.98068 18.292 3.08911 18.3012 3.19172 18.3334C10.3251 20.7417 7.94172 20.75 15.9834 16.6667C16.039 16.6395 16.0868 16.5986 16.1224 16.5479C16.158 16.4972 16.1801 16.4383 16.1868 16.3768C16.1934 16.3152 16.1844 16.2529 16.1605 16.1958C16.1366 16.1387 16.0986 16.0885 16.0501 16.05C15.8122 15.8567 15.5291 15.7269 15.2274 15.673C14.9257 15.619 14.6151 15.6427 14.3251 15.7417Z" fill="#E01C5B"/>
</g>
<defs>
<clipPath id="clip0_342_498">
<rect width="20" height="20" fill="white"/>
</clipPath>
</defs>
</svg>
