<svg width="19" height="19" viewBox="0 0 19 19" fill="none" xmlns="http://www.w3.org/2000/svg">
<path d="M17.8124 11.875L15.4374 9.5L14.5978 10.3396L16.1321 11.875L14.3508 13.6562L16.1321 15.4375L14.5972 16.9729L15.4374 17.8125L17.8124 15.4375L16.0311 13.6562L17.8124 11.875ZM13.6561 11.875L11.2811 9.5L10.4416 10.3396L11.9758 11.875L10.1946 13.6562L11.9758 15.4375L10.441 16.9729L11.2811 17.8125L13.6561 15.4375L11.8749 13.6562L13.6561 11.875Z" fill="#E01C5B"/>
<path d="M8.90625 16.625H5.34375V4.75H13.6562V8.3125H14.8438V2.375C14.8438 1.72009 14.3112 1.1875 13.6562 1.1875H5.34375C4.68884 1.1875 4.15625 1.72009 4.15625 2.375V16.625C4.15625 17.2799 4.68884 17.8125 5.34375 17.8125H8.90625V16.625ZM5.34375 2.375H13.6562V3.5625H5.34375V2.375Z" fill="#E01C5B"/>
</svg>
