<svg width="32" height="32" viewBox="0 0 32 32" fill="none" xmlns="http://www.w3.org/2000/svg">
<rect width="32" height="32" rx="8" fill="#FDE8EF"/>
<path d="M10.3106 22.5501C10.0182 22.3257 9.71153 21.9799 9.58184 21.6444C9.34305 21.879 8.90664 22.2084 8.27262 22.2804C7.72711 22.3422 7.38333 22.2434 7.27217 22.089C7.13837 21.9058 7.0972 21.6814 7.22483 21.3603C7.35451 21.0371 7.24129 20.6521 7.20424 20.5266C6.40965 17.9287 7.94119 17.2782 8.44553 17.1135C8.66785 17.0415 8.90047 17.0044 9.13308 17.0044C9.50773 17.0044 9.85357 17.0991 10.15 17.235C10.7729 16.6937 11.5706 16.3961 12.3958 16.3972C13.2337 16.3972 14.0406 16.6421 14.4338 17.1321C14.8579 17.659 15.0164 17.0147 15.0267 16.5742C14.9937 14.81 13.6454 14.0093 11.1381 14.0093H9.57155C7.38127 14.0093 6 14.9788 6 16.8768V22.0499C6 22.8383 6.6402 23.4785 7.42862 23.4785H9.24836C9.52626 23.1121 9.88856 22.7951 10.3106 22.5501Z" fill="#E01C5B"/>
<path d="M10.5122 13.2662C12.2426 13.2662 13.6453 11.8634 13.6453 10.1331C13.6453 8.40273 12.2426 7 10.5122 7C8.78188 7 7.37915 8.40273 7.37915 10.1331C7.37915 11.8634 8.78188 13.2662 10.5122 13.2662Z" fill="#E01C5B"/>
<path d="M21.4285 14.0113H19.862C17.3238 14.0113 15.9693 14.8306 15.9693 16.6401L15.959 17.0291C16.0907 17.0477 16.2184 17.0744 16.346 17.1156C16.5704 17.1897 17.0088 17.3791 17.3547 17.7928C17.9784 16.9324 18.9912 16.3704 20.1337 16.3704C22.0255 16.3704 23.5652 17.9102 23.5652 19.802C23.5652 20.9156 23.028 21.9058 22.2025 22.5336C22.6369 22.7807 23.0094 23.1039 23.2956 23.4785H23.5714C24.3598 23.4785 25 22.8383 25 22.0499V16.8789C25.0021 14.9809 23.6188 14.0113 21.4285 14.0113Z" fill="#E01C5B"/>
<path d="M20.4856 13.2662C22.216 13.2662 23.6187 11.8634 23.6187 10.1331C23.6187 8.40273 22.216 7 20.4856 7C18.7553 7 17.3525 8.40273 17.3525 10.1331C17.3525 11.8634 18.7553 13.2662 20.4856 13.2662Z" fill="#E01C5B"/>
<path d="M20.1357 22.3298C21.5306 22.3298 22.6615 21.199 22.6615 19.804C22.6615 18.4091 21.5306 17.2782 20.1357 17.2782C18.7407 17.2782 17.6099 18.4091 17.6099 19.804C17.6099 21.199 18.7407 22.3298 20.1357 22.3298Z" fill="#E01C5B"/>
<path d="M17.6266 25.148C17.4207 25.148 17.2663 24.9524 17.3199 24.7548C17.5998 23.7317 18.7505 22.9001 20.1298 22.9001C21.5151 22.9001 22.6679 23.7091 22.9438 24.7569C22.9952 24.9545 22.8429 25.15 22.637 25.15L17.6266 25.148ZM9.90092 25.148C9.69507 25.148 9.54068 24.9524 9.5942 24.7548C9.87416 23.7317 11.0249 22.9001 12.4041 22.9001C13.7895 22.9001 14.9423 23.7091 15.2181 24.7569C15.2696 24.9545 15.1172 25.15 14.9114 25.15L9.90092 25.148ZM16.7723 20.3475C17.1264 19.1885 16.9864 18.2766 16.0662 17.9761C15.2902 17.7249 14.6211 18.2766 14.4997 18.4351C14.0468 17.7537 13.2749 17.307 12.3959 17.307C11.5169 17.307 10.7449 17.7558 10.292 18.4351C10.1706 18.2787 9.50157 17.7249 8.7255 17.9761C7.80534 18.2745 7.66536 19.1885 8.01943 20.3475C8.11824 20.6686 8.11824 21.0083 7.96385 21.3912C7.92473 21.49 8.01325 21.595 8.11412 21.5661C9.39041 21.2059 9.4007 20.0099 9.44599 19.5344C9.49951 18.9806 9.80829 18.9642 10.0121 19.0053C9.89063 19.3573 9.83917 19.7423 9.89063 20.1478C10.0491 21.385 11.1257 22.3463 12.3753 22.3587C13.7812 22.371 14.9237 21.2347 14.9237 19.8329C14.9237 19.5426 14.8723 19.2668 14.7817 19.0074C14.9855 18.9642 15.2654 18.9744 15.3478 19.5364C15.4157 19.9934 15.4075 21.138 16.5706 21.5332C16.7105 21.5805 16.8464 21.4467 16.7991 21.3068C16.6735 20.9568 16.6817 20.646 16.7723 20.3475Z" fill="#E01C5B"/>
</svg>
