<svg width="16" height="16" viewBox="0 0 16 16" fill="none" xmlns="http://www.w3.org/2000/svg">
<g clip-path="url(#clip0_327_133)">
<path d="M1 5.66667C1 5.66667 3.66667 2 8 2C12.3333 2 15 5.66667 15 5.66667" stroke="white" stroke-width="1.66667"/>
<path d="M3.33325 7.66666C3.33325 7.66666 4.99992 5.33333 7.99992 5.33333C10.9999 5.33333 12.6666 7.66666 12.6666 7.66666" stroke="white" stroke-width="1.66667"/>
<path d="M8.00008 11.3333C8.73646 11.3333 9.33341 10.7364 9.33341 10C9.33341 9.26363 8.73646 8.66667 8.00008 8.66667C7.2637 8.66667 6.66675 9.26363 6.66675 10C6.66675 10.7364 7.2637 11.3333 8.00008 11.3333Z" stroke="white" stroke-width="1.66667"/>
<path d="M8 11.3333V14" stroke="white" stroke-width="1.66667"/>
</g>
<defs>
<clipPath id="clip0_327_133">
<rect width="16" height="16" fill="white"/>
</clipPath>
</defs>
</svg>
