<svg width="23" height="16" viewBox="0 0 23 16" fill="none" xmlns="http://www.w3.org/2000/svg">
<path fill-rule="evenodd" clip-rule="evenodd" d="M0.667812 0.918241L0.801374 0.767984C1.29088 0.256106 2.02013 0 2.98846 0H19.5836C20.4961 0 21.1973 0.222715 21.6872 0.667812L21.7039 0.684507C21.8041 0.77366 21.9046 0.879174 22.0044 1.00172C22.0044 1.01307 22.0101 1.02409 22.0211 1.03511L22.0378 1.0518C22.4054 1.50825 22.5887 2.15369 22.5887 2.98846V12.438C22.5777 14.4414 21.576 15.4431 19.5836 15.4431H2.98846C0.996041 15.4321 0 14.4304 0 12.438V2.98846C0 2.08691 0.222715 1.39673 0.667812 0.918241ZM20.1345 1.63614C19.9676 1.59173 19.7839 1.5747 19.5839 1.58605H2.98846C2.86591 1.57503 2.74905 1.58038 2.63786 1.60275L11.2359 10.3177L20.1345 1.63614ZM1.58605 2.80481C1.57503 2.86057 1.57503 2.92168 1.58605 2.98846V12.438C1.58605 13.3843 2.05352 13.8571 2.98846 13.8571H19.5836C20.5295 13.8571 21.0027 13.3843 21.0027 12.438V3.00515L11.7869 12.0039C11.6199 12.1599 11.4309 12.2377 11.2196 12.2377C10.9969 12.2266 10.8075 12.1485 10.6519 12.0039L1.58605 2.80481Z" fill="#DF1E5A"/>
<path fill-rule="evenodd" clip-rule="evenodd" d="M0.667969 0.917835C0.69034 0.884445 0.718054 0.851054 0.751444 0.817664C0.762797 0.795292 0.779158 0.778597 0.801529 0.767578L0.667969 0.917835Z" fill="#DF1E5A"/>
</svg>
