<svg width="12" height="12" viewBox="0 0 12 12" fill="none" xmlns="http://www.w3.org/2000/svg">
<path d="M4.0625 10.6065C3.45417 10.3438 2.923 9.9855 2.469 9.5315C2.015 9.0775 1.65667 8.54617 1.394 7.9375C1.13133 7.32883 1 6.681 1 5.994C1 5.307 1.13133 4.66117 1.394 4.0565C1.65667 3.45183 2.015 2.92267 2.469 2.469C2.923 2.01533 3.45417 1.657 4.0625 1.394C4.67083 1.131 5.31883 0.999667 6.0065 1C6.69417 1.00033 7.34 1.13167 7.944 1.394C8.548 1.65633 9.07717 2.01467 9.5315 2.469C9.98583 2.92333 10.3442 3.4525 10.6065 4.0565C10.8688 4.6605 11 5.30633 11 5.994C11 6.68167 10.8688 7.3295 10.6065 7.9375C10.3442 8.5455 9.98583 9.07683 9.5315 9.5315C9.07717 9.98617 8.548 10.3445 7.944 10.6065C7.34 10.8685 6.69417 10.9997 6.0065 11C5.31883 11.0003 4.67083 10.8692 4.0625 10.6065ZM6 9.975C6.21667 9.675 6.40417 9.3625 6.5625 9.0375C6.72083 8.7125 6.85 8.36667 6.95 8H5.05C5.15 8.36667 5.27917 8.7125 5.4375 9.0375C5.59583 9.3625 5.78333 9.675 6 9.975ZM4.7 9.775C4.55 9.5 4.41883 9.2145 4.3065 8.9185C4.19417 8.6225 4.10033 8.31633 4.025 8H2.55C2.79167 8.41667 3.09383 8.77917 3.4565 9.0875C3.81917 9.39583 4.23367 9.625 4.7 9.775ZM7.3 9.775C7.76667 9.625 8.18133 9.39583 8.544 9.0875C8.90667 8.77917 9.20867 8.41667 9.45 8H7.975C7.9 8.31667 7.80633 8.623 7.694 8.919C7.58167 9.215 7.45033 9.50033 7.3 9.775ZM2.125 7H3.825C3.8 6.83333 3.78133 6.66883 3.769 6.5065C3.75667 6.34417 3.75033 6.17533 3.75 6C3.74967 5.82467 3.756 5.656 3.769 5.494C3.782 5.332 3.80067 5.16733 3.825 5H2.125C2.08333 5.16667 2.05217 5.33133 2.0315 5.494C2.01083 5.65667 2.00033 5.82533 2 6C1.99967 6.17467 2.01017 6.3435 2.0315 6.5065C2.05283 6.6695 2.084 6.834 2.125 7ZM4.825 7H7.175C7.2 6.83333 7.21883 6.66883 7.2315 6.5065C7.24417 6.34417 7.25033 6.17533 7.25 6C7.24967 5.82467 7.24333 5.656 7.231 5.494C7.21867 5.332 7.2 5.16733 7.175 5H4.825C4.8 5.16667 4.78133 5.33133 4.769 5.494C4.75667 5.65667 4.75033 5.82533 4.75 6C4.74967 6.17467 4.756 6.3435 4.769 6.5065C4.782 6.6695 4.80067 6.834 4.825 7ZM8.175 7H9.875C9.91667 6.83333 9.948 6.66883 9.969 6.5065C9.99 6.34417 10.0003 6.17533 10 6C9.99967 5.82467 9.98933 5.656 9.969 5.494C9.94867 5.332 9.91733 5.16733 9.875 5H8.175C8.2 5.16667 8.21883 5.33133 8.2315 5.494C8.24417 5.65667 8.25033 5.82533 8.25 6C8.24967 6.17467 8.24333 6.3435 8.231 6.5065C8.21867 6.6695 8.2 6.834 8.175 7ZM7.975 4H9.45C9.20833 3.58333 8.90633 3.22083 8.544 2.9125C8.18167 2.60417 7.767 2.375 7.3 2.225C7.45 2.5 7.58133 2.7855 7.694 3.0815C7.80667 3.3775 7.90033 3.68367 7.975 4ZM5.05 4H6.95C6.85 3.63333 6.72083 3.2875 6.5625 2.9625C6.40417 2.6375 6.21667 2.325 6 2.025C5.78333 2.325 5.59583 2.6375 5.4375 2.9625C5.27917 3.2875 5.15 3.63333 5.05 4ZM2.55 4H4.025C4.1 3.68333 4.19383 3.377 4.3065 3.081C4.41917 2.785 4.55033 2.49967 4.7 2.225C4.23333 2.375 3.81867 2.60417 3.456 2.9125C3.09333 3.22083 2.79133 3.58333 2.55 4Z" fill="#E01C5B"/>
</svg>
