<svg xmlns="http://www.w3.org/2000/svg" width="75" height="75" viewBox="0 0 75 75" fill="none"><circle cx="37.5" cy="37.5" r="37.5" fill="#DF1E5A" fill-opacity="0.1"></circle><g clip-path="url(#clip0_19708_1198)"><path d="M38.5013 31.4464C39.9647 31.4464 41.151 30.2601 41.151 28.7967C41.151 27.3333 39.9647 26.147 38.5013 26.147C37.0379 26.147 35.8516 27.3333 35.8516 28.7967C35.8516 30.2601 37.0379 31.4464 38.5013 31.4464Z" fill="#DF1E5A"></path><path d="M43.7988 18.1878C43.7988 17.7002 44.1945 17.3054 44.6821 17.3054H50.8648C50.8648 15.5151 49.6715 13.9509 47.8618 13.4041L47.7532 13.3714C41.7028 11.5423 35.301 11.5432 29.2427 13.3723L28.9619 13.4571C27.2961 13.9597 26.1328 15.5416 26.1328 17.3045H32.3155C32.8031 17.3045 33.1987 17.7002 33.1987 18.1877C33.1987 18.6752 32.803 19.0709 32.3155 19.0709H26.1328V20.8374H30.549C31.0366 20.8374 31.4322 21.2331 31.4322 21.7206C31.4322 22.208 31.0365 22.6038 30.549 22.6038H26.1328V24.3703H30.549C31.0366 24.3703 31.4322 24.766 31.4322 25.2536C31.4322 25.7411 31.0365 26.1368 30.549 26.1368H26.1328V27.9033H30.549C31.0366 27.9033 31.4322 28.299 31.4322 28.7865C31.4322 29.274 31.0365 29.6697 30.549 29.6697H26.1328V31.4362H30.549C31.0366 31.4362 31.4322 31.8319 31.4322 32.3194C31.4322 32.8069 31.0365 33.2026 30.549 33.2026H26.1328V34.9691H30.549C31.0366 34.9691 31.4322 35.3648 31.4322 35.8523C31.4322 36.3398 31.0365 36.7356 30.549 36.7356H26.1328V38.5021H32.3155C32.8031 38.5021 33.1987 38.8978 33.1987 39.3853C33.1987 39.8728 32.803 40.2685 32.3155 40.2685H26.1328C26.1328 42.0977 27.327 43.6875 29.1032 44.2245C30.1639 44.5451 31.238 44.7889 32.3164 44.9991V54.3668C32.3164 55.3597 33.1308 56.1669 34.1324 56.1669H35.8494V64.1161C35.8494 64.6036 36.2452 64.9994 36.7326 64.9994H40.2656C40.7532 64.9994 41.1488 64.6036 41.1488 64.1161V56.1669H42.8659C43.8675 56.1669 44.6819 55.3596 44.6819 54.3668V44.9991C45.7603 44.7898 46.8344 44.5451 47.8951 44.2245C49.6713 43.6884 50.8645 42.0985 50.8645 40.2685H44.6819C44.1943 40.2685 43.7986 39.8727 43.7986 39.3853C43.7986 38.8977 44.1944 38.5021 44.6819 38.5021H50.8645V36.7356H46.4484C45.9608 36.7356 45.5652 36.3398 45.5652 35.8523C45.5652 35.3647 45.9609 34.9691 46.4484 34.9691H50.8645V33.2026H46.4484C45.9608 33.2026 45.5652 32.8068 45.5652 32.3194C45.5652 31.8318 45.9609 31.4362 46.4484 31.4362H50.8645V29.6697H46.4484C45.9608 29.6697 45.5652 29.2739 45.5652 28.7865C45.5652 28.2989 45.9609 27.9033 46.4484 27.9033H50.8645V26.1368H46.4484C45.9608 26.1368 45.5652 25.741 45.5652 25.2536C45.5652 24.766 45.9609 24.3703 46.4484 24.3703H50.8645V22.6038H46.4484C45.9608 22.6038 45.5652 22.208 45.5652 21.7206C45.5652 21.2331 45.9609 20.8374 46.4484 20.8374H50.8645V19.0711H44.6819C44.1944 19.0711 43.7988 18.6753 43.7988 18.1878ZM39.3825 63.2343H37.6159V56.1683H39.3825V63.2343ZM41.149 51.7521C41.149 52.2397 40.7532 52.6353 40.2658 52.6353H36.7327C36.2452 52.6353 35.8494 52.2396 35.8494 51.7521V48.2191C35.8494 47.7316 36.2452 47.3359 36.7327 47.3359H40.2658C40.7533 47.3359 41.149 47.7317 41.149 48.2191V51.7521ZM38.4993 33.2154C36.0641 33.2154 34.083 31.2343 34.083 28.7992C34.083 26.3641 36.0641 24.383 38.4993 24.383C40.9344 24.383 42.9155 26.3641 42.9155 28.7992C42.9155 31.2343 40.9344 33.2154 38.4993 33.2154Z" fill="#DF1E5A"></path><path d="M39.3837 49.1025H37.6172V50.869H39.3837V49.1025Z" fill="#DF1E5A"></path><path d="M55.0235 22.8635C54.679 22.5182 54.12 22.5182 53.7746 22.8635C53.4293 23.2088 53.4293 23.7671 53.7746 24.1124C55.2779 25.6157 56.1055 27.5889 56.1055 29.6707C56.1055 31.7525 55.2779 33.7257 53.7746 35.229C53.4293 35.5743 53.4293 36.1326 53.7746 36.4779C53.9469 36.6502 54.173 36.7367 54.399 36.7367C54.6251 36.7367 54.8513 36.6502 55.0234 36.4779C56.8606 34.6416 57.8719 32.2242 57.8719 29.6707C57.8719 27.1172 56.8606 24.6998 55.0235 22.8635Z" fill="#DF1E5A"></path><path d="M60.2918 19.3034C59.9323 18.9731 59.3724 18.9996 59.0438 19.36C58.7144 19.7203 58.74 20.2786 59.1004 20.608C61.7492 23.0281 63.2154 26.2183 63.2295 29.5906C63.2436 33.0016 61.7757 36.2511 59.095 38.7392C58.7382 39.0713 58.7169 39.6304 59.049 39.9881C59.223 40.1754 59.4598 40.2699 59.6964 40.2699C59.9119 40.2699 60.1274 40.1922 60.2979 40.0341C63.3443 37.205 65.0127 33.4936 64.9968 29.5826C64.9801 25.7114 63.309 22.0601 60.2918 19.3034Z" fill="#DF1E5A"></path><path d="M23.2252 35.229C20.1083 32.112 20.1083 27.2294 23.2252 24.1124C23.5697 23.7671 23.5697 23.2088 23.2252 22.8635C22.8799 22.5182 22.3216 22.5182 21.9763 22.8635C18.1589 26.6808 18.1589 32.6605 21.9763 36.4779C22.1486 36.6502 22.3746 36.7367 22.6007 36.7367C22.8268 36.7367 23.053 36.6502 23.2251 36.4779C23.5706 36.1326 23.5706 35.5743 23.2252 35.229Z" fill="#DF1E5A"></path><path d="M13.7674 29.5904C13.7815 26.2182 15.2477 23.027 17.8966 20.6078C18.2569 20.2783 18.2826 19.7202 17.9531 19.3598C17.6236 19.0003 17.0655 18.9738 16.7042 19.3033C13.6862 22.0607 12.016 25.7112 12.0001 29.5833C11.9842 33.4934 13.6526 37.2049 16.699 40.0348C16.8695 40.1929 17.085 40.2706 17.3005 40.2706C17.5373 40.2706 17.7739 40.1761 17.9479 39.9888C18.2792 39.6311 18.2588 39.072 17.902 38.7399C15.2222 36.2501 13.7542 33.0015 13.7674 29.5904Z" fill="#DF1E5A"></path></g><defs><clipPath id="clip0_19708_1198"><rect width="53" height="53" fill="white" transform="translate(12 12)"></rect></clipPath></defs></svg>