<svg xmlns="http://www.w3.org/2000/svg" width="73" height="73" viewBox="0 0 73 73" fill="none"><circle cx="36.5" cy="36.5" r="36.5" fill="#DF1E5A" fill-opacity="0.1"></circle><path fill-rule="evenodd" clip-rule="evenodd" d="M34.0696 14.8115C38.444 14.8115 41.9954 18.363 41.9954 22.7374C41.9954 27.1118 38.444 30.6633 34.0696 30.6633C29.6952 30.6633 26.1437 27.1118 26.1437 22.7374C26.1437 18.363 29.6952 14.8115 34.0696 14.8115ZM37.2713 21.7149L33.3681 19.4613C33.0028 19.2504 32.5527 19.2504 32.1874 19.4613C31.8221 19.6722 31.597 20.0621 31.597 20.4839V24.9909C31.597 25.4127 31.8221 25.8025 32.1874 26.0134C32.5527 26.2244 33.0028 26.2244 33.3681 26.0134L37.2713 23.7599C37.6367 23.549 37.8617 23.1592 37.8617 22.7374C37.8617 22.3155 37.6367 21.9258 37.2713 21.7149ZM19.1535 37.471V32.4809C19.1535 32.0942 19.4713 31.7763 19.858 31.7763H29.463C29.8497 31.7763 30.1676 32.0942 30.1676 32.4809V37.1583L28.3128 34.6778C28.1856 34.5076 27.9923 34.3992 27.7808 34.3791C27.5693 34.3591 27.3591 34.4294 27.2022 34.5727L24.4372 37.0965L22.9739 35.4481C22.7129 35.1541 22.2696 35.1104 21.9562 35.3478L19.1535 37.471ZM24.4459 35.6432C24.8719 35.6432 25.2193 35.2959 25.2193 34.8699C25.2193 34.4438 24.8719 34.0932 24.4459 34.0932C24.0165 34.0932 23.6692 34.4438 23.6692 34.8699C23.6692 35.2959 24.0165 35.6432 24.4459 35.6432ZM30.1676 39.6729V40.6735C30.1676 41.0635 29.8497 41.3813 29.463 41.3813H19.858C19.4713 41.3813 19.1535 41.0635 19.1535 40.6735V39.3602L22.3102 36.9688L23.3249 38.1119L22.8798 38.5182C22.5729 38.7983 22.5511 39.275 22.8313 39.5819C23.1114 39.8888 23.5881 39.9105 23.895 39.6303L27.6041 36.2447L30.1676 39.6729ZM47.3409 55.771V57.1882H20.8009V55.1416C20.8009 54.0176 21.9541 53.0975 23.3618 53.0975H27.9323V48.3257H17.5427C15.8912 48.3257 14.5391 46.9736 14.5391 45.3219V24.6648C14.5391 23.0131 15.8912 21.6611 17.5427 21.6611H24.6987C24.6585 22.0143 24.6378 22.3735 24.6378 22.7374C24.6378 23.2259 24.6751 23.7057 24.7468 24.1743H17.4685C17.2379 24.1743 17.0497 24.3599 17.0497 24.5905V43.2674H37.8901V53.7917C37.8901 54.8864 38.7834 55.771 39.8694 55.771H47.3409ZM51.0895 29.3492V24.5905C51.0895 24.3599 50.9012 24.1743 50.6733 24.1743H43.3923C43.4641 23.7057 43.5013 23.2259 43.5013 22.7374C43.5013 22.3735 43.4807 22.0143 43.4405 21.6611H50.5964C52.2481 21.6611 53.6 23.0131 53.6 24.6648V29.3492H51.0895ZM54.5307 30.897C54.5809 30.92 54.6271 30.9515 54.6689 30.9934L57.3205 33.6429C57.3624 33.6847 57.3938 33.7329 57.4169 33.7811H54.7674C54.6375 33.7811 54.5307 33.6764 54.5307 33.5465V30.897ZM57.4588 35.2863V53.7917C57.4588 54.0535 57.2451 54.2651 56.9855 54.2651H39.8694C39.6096 54.2651 39.396 54.0535 39.396 53.7917V31.3284C39.396 31.0687 39.6096 30.8551 39.8694 30.8551H53.0254C53.025 30.869 53.0248 30.883 53.0248 30.897V33.5465C53.0248 34.5063 53.8076 35.287 54.7674 35.287H57.4169C57.4308 35.287 57.4448 35.2868 57.4588 35.2863ZM41.2873 35.4756V38.1265C41.2873 38.2513 41.3369 38.371 41.4252 38.4592C41.5135 38.5475 41.6331 38.5971 41.7579 38.5971H44.4088C44.5336 38.5971 44.6532 38.5475 44.7415 38.4592C44.8298 38.371 44.8794 38.2513 44.8794 38.1265V35.4756C44.8794 35.3508 44.8298 35.2311 44.7415 35.1429C44.6532 35.0546 44.5336 35.005 44.4088 35.005H41.7579C41.6331 35.005 41.5135 35.0546 41.4252 35.1429C41.3369 35.2311 41.2873 35.3508 41.2873 35.4756ZM46.8 48.283H54.5823C54.9978 48.283 55.3352 47.9455 55.3352 47.53C55.3352 47.1145 54.9978 46.7771 54.5823 46.7771H46.8C46.3844 46.7771 46.047 47.1145 46.047 47.53C46.047 47.9455 46.3844 48.283 46.8 48.283ZM46.8 42.431H54.4825C54.8981 42.431 55.2354 42.0936 55.2354 41.6781C55.2354 41.2625 54.8981 40.9251 54.4825 40.9251H46.8C46.3844 40.9251 46.047 41.2625 46.047 41.6781C46.047 42.0936 46.3844 42.431 46.8 42.431ZM46.8 50.2329H54.4428C54.8584 50.2329 55.1957 49.8956 55.1957 49.4799C55.1957 49.0644 54.8584 48.727 54.4428 48.727H46.8C46.3844 48.727 46.047 49.0644 46.047 49.4799C46.047 49.8956 46.3844 50.2329 46.8 50.2329ZM41.2873 41.3276V43.9785C41.2873 44.1033 41.3369 44.2229 41.4252 44.3112C41.5135 44.3995 41.6331 44.4491 41.7579 44.4491H44.4088C44.5336 44.4491 44.6532 44.3995 44.7415 44.3112C44.8298 44.2229 44.8794 44.1033 44.8794 43.9785V41.3276C44.8794 41.2028 44.8298 41.0831 44.7415 40.9949C44.6532 40.9066 44.5336 40.857 44.4088 40.857H41.7579C41.6331 40.857 41.5135 40.9066 41.4252 40.9949C41.3369 41.0831 41.2873 41.2028 41.2873 41.3276ZM41.2873 47.1795V49.8304C41.2873 49.9552 41.3369 50.075 41.4252 50.1631C41.5135 50.2514 41.6331 50.301 41.7579 50.301H44.4088C44.5336 50.301 44.6532 50.2514 44.7415 50.1631C44.8298 50.075 44.8794 49.9552 44.8794 49.8304V47.1795C44.8794 47.0547 44.8298 46.9351 44.7415 46.8468C44.6532 46.7585 44.5336 46.7089 44.4088 46.7089H41.7579C41.6331 46.7089 41.5135 46.7585 41.4252 46.8468C41.3369 46.9351 41.2873 47.0547 41.2873 47.1795ZM46.8 38.529H54.4825C54.8981 38.529 55.2354 38.1916 55.2354 37.776C55.2354 37.3605 54.8981 37.0231 54.4825 37.0231H46.8C46.3844 37.0231 46.047 37.3605 46.047 37.776C46.047 38.1916 46.3844 38.529 46.8 38.529ZM46.8 44.3809H54.4825C54.8981 44.3809 55.2354 44.0435 55.2354 43.628C55.2354 43.2125 54.8981 42.8751 54.4825 42.8751H46.8C46.3844 42.8751 46.047 43.2125 46.047 43.628C46.047 44.0435 46.3844 44.3809 46.8 44.3809ZM46.8 36.5791H52.0692C52.4849 36.5791 52.8222 36.2416 52.8222 35.8261C52.8222 35.4105 52.4849 35.0732 52.0692 35.0732H46.8C46.3844 35.0732 46.047 35.4105 46.047 35.8261C46.047 36.2416 46.3844 36.5791 46.8 36.5791Z" fill="#DF1E5A"></path></svg>