<svg xmlns="http://www.w3.org/2000/svg" width="73" height="73" viewBox="0 0 73 73" fill="none"><circle cx="36.5" cy="36.5" r="36.5" fill="#DF1E5A" fill-opacity="0.1"></circle><path d="M48.6319 28.7798C48.6319 29.0449 48.4173 29.2603 48.1514 29.2603C47.8856 29.2603 47.671 29.0449 47.671 28.7798C47.671 26.6001 45.898 24.8272 43.7191 24.8272C43.454 24.8272 43.2386 24.6126 43.2386 24.3467C43.2386 24.0808 43.454 23.8662 43.7191 23.8662C46.4281 23.8662 48.6319 26.0708 48.6319 28.7798ZM43.7191 21.6697C43.454 21.6697 43.2386 21.8851 43.2386 22.1502C43.2386 22.4152 43.454 22.6306 43.7191 22.6306C47.1096 22.6306 49.8675 25.3893 49.8675 28.7798C49.8675 29.0449 50.0829 29.2603 50.348 29.2603C50.613 29.2603 50.8284 29.0449 50.8284 28.7798C50.8284 24.8592 47.6397 21.6697 43.7191 21.6697ZM43.7191 19.4731C43.454 19.4731 43.2386 19.6886 43.2386 19.9536C43.2386 20.2187 43.454 20.4341 43.7191 20.4341C48.3204 20.4341 52.064 24.1777 52.064 28.7798C52.064 29.0449 52.2795 29.2603 52.5445 29.2603C52.8096 29.2603 53.025 29.0449 53.025 28.7798C53.025 23.6476 48.8505 19.4731 43.7191 19.4731ZM33.4222 27.0402C33.5769 26.9448 33.7721 26.9448 33.9268 27.0402L45.4797 34.1687H48.7122C48.8391 34.1687 48.9396 34.0928 48.9741 33.9706C49.0088 33.8484 48.9633 33.7311 48.8552 33.6644L45.0911 31.3419C44.9493 31.2544 44.8629 31.0997 44.8629 30.933V28.1195C44.8629 27.7306 44.5465 27.4143 44.1576 27.4143C43.7687 27.4143 43.4524 27.7306 43.4524 28.1195V29.4698C43.4524 29.6439 43.3581 29.8045 43.206 29.8893C43.054 29.9742 42.8678 29.9701 42.7196 29.8787L34.4599 24.7822C34.2159 24.6316 33.9444 24.552 33.6745 24.552C33.4046 24.552 33.1331 24.6316 32.8891 24.7822L18.4937 33.6645C18.3857 33.7311 18.34 33.8484 18.3747 33.9706C18.4094 34.0928 18.5097 34.1687 18.6367 34.1687H21.8693L33.4222 27.0402ZM44.8629 50.4016V34.9173L33.6745 28.0137L22.4861 34.9173V50.4017H29.1761V50.1013C29.1761 49.2656 29.8561 48.5857 30.6918 48.5857H32.286V47.0318C29.8553 46.9837 27.8928 44.9914 27.8928 42.5493V39.8153C27.8928 39.55 28.108 39.3348 28.3733 39.3348H29.7088V35.351C29.7088 33.8802 30.9054 32.6836 32.3762 32.6836H34.9729C36.4437 32.6836 37.6403 33.8801 37.6403 35.351V39.3348H38.9758C39.2411 39.3348 39.4563 39.55 39.4563 39.8153V42.5493C39.4563 44.9912 37.4937 46.9834 35.0631 47.0318V48.5857H36.6573C37.4929 48.5857 38.1729 49.2656 38.1729 50.1013V50.4017H44.8629L44.8629 50.4016ZM50.0832 45.0264C50.0832 44.5542 49.699 44.17 49.2267 44.17C48.7544 44.17 48.3702 44.5542 48.3702 45.0264C48.3702 45.4986 48.7544 45.8829 49.2267 45.8829C49.699 45.8829 50.0832 45.4987 50.0832 45.0264ZM28.8537 40.2958V42.5493C28.8537 44.4916 30.4338 46.0717 32.3761 46.0717H32.7665C33.0318 46.0717 33.247 46.2868 33.247 46.5521V48.5857H34.102V46.5521C34.102 46.2868 34.3172 46.0717 34.5825 46.0717H34.9729C36.9152 46.0717 38.4953 44.4916 38.4953 42.5493V40.2958H37.6402V42.5493C37.6402 44.0201 36.4436 45.2167 34.9728 45.2167H32.3761C30.9053 45.2167 29.7087 44.0201 29.7087 42.5493V40.2958H28.8537ZM54.0675 43.1201C54.2536 42.782 54.7032 41.5437 53.3012 39.0227C51.8992 41.5438 52.3487 42.782 52.5348 43.1201C52.7155 43.4482 52.9948 43.6363 53.3012 43.6363C53.6075 43.6363 53.8869 43.4481 54.0675 43.1201ZM56.039 51.3627H18.9947C18.6629 51.3627 18.393 51.6326 18.393 51.9644C18.393 52.2963 18.6629 52.5662 18.9947 52.5662H56.0389C56.3707 52.5662 56.6406 52.2963 56.6406 51.9644C56.6406 51.6326 56.3706 51.3627 56.0389 51.3627H56.039ZM30.1371 50.1013V50.4017H37.2119V50.1013C37.2119 49.7955 36.9631 49.5466 36.6572 49.5466H30.6918C30.3859 49.5466 30.1371 49.7954 30.1371 50.1013ZM31.9536 39.1186H30.6697V42.5493C30.6697 43.4903 31.4353 44.2558 32.3762 44.2558H34.9729C35.9138 44.2558 36.6794 43.4903 36.6794 42.5493V39.1186H35.3955C35.1302 39.1186 34.915 38.9035 34.915 38.6382C34.915 38.3729 35.1302 38.1577 35.3955 38.1577H36.6794V36.962H35.3955C35.1302 36.962 34.915 36.7468 34.915 36.4815C34.915 36.2162 35.1302 36.001 35.3955 36.001H36.6794V35.351C36.6794 34.4101 35.9138 33.6446 34.9729 33.6446H32.3762C31.4353 33.6446 30.6697 34.4101 30.6697 35.351V36.001H31.9536C32.2189 36.001 32.4341 36.2162 32.4341 36.4815C32.4341 36.7468 32.2189 36.962 31.9536 36.962H30.6697V38.1577H31.9536C32.2189 38.1577 32.4341 38.3729 32.4341 38.6382C32.4341 38.9035 32.2189 39.1186 31.9536 39.1186ZM52.8209 44.428V50.4338H53.7818V44.428H52.8209ZM48.7465 46.6702V50.4338H49.7074V46.6702H48.7465Z" fill="#DF1E5A"></path></svg>