<svg xmlns="http://www.w3.org/2000/svg" width="73" height="73" viewBox="0 0 73 73" fill="none"><circle cx="36.5" cy="36.5" r="36.5" fill="#DF1E5A" fill-opacity="0.1"></circle><path fill-rule="evenodd" clip-rule="evenodd" d="M52.5912 34.5383V27.7861C52.5912 27.7087 52.503 27.6646 52.441 27.7111L47.8342 31.1735C47.8098 31.1919 47.7967 31.2181 47.7967 31.2485V41.604C47.7967 43.8379 45.083 44.9647 43.5015 43.3831C41.92 41.8016 43.0468 39.0879 45.2807 39.0879C46.0023 39.0879 46.2371 39.3507 46.3479 39.2773C46.3749 39.2593 46.3899 39.2315 46.3899 39.1991V30.854H46.3927C46.3928 30.6411 46.4896 30.4309 46.673 30.2934L52.823 25.6712C53.4322 25.2175 53.9983 25.6995 53.9983 26.1933V36.9434C53.9983 39.1773 51.2845 40.3041 49.703 38.7226C48.1215 37.1411 49.2484 34.4274 51.4822 34.4274C52.2038 34.4274 52.4386 34.6902 52.5494 34.6168C52.5762 34.5986 52.5912 34.5708 52.5912 34.5383ZM40.2039 50.2757H49.9356C50.0118 50.2757 50.0562 50.1902 50.0122 50.1279L49.2385 49.0307C48.9101 48.5649 48.4423 48.3238 47.8717 48.3238H40.2038C40.1522 48.3238 40.11 48.366 40.11 48.4176V50.182C40.1101 50.2336 40.1523 50.2757 40.2039 50.2757ZM53.7261 51.6827H18.2718C17.701 51.6827 17.2334 51.9239 16.9049 52.3896L14.9471 55.1663C14.9031 55.2286 14.9476 55.3141 15.0237 55.3141H56.9741C57.0502 55.3141 57.0946 55.2286 57.0508 55.1663L55.0928 52.3895C54.7643 51.9238 54.2967 51.6827 53.7261 51.6827ZM31.7939 48.3238H24.126C23.5554 48.3238 23.0877 48.5648 22.7593 49.0307L21.9856 50.1279C21.9416 50.1902 21.9861 50.2757 22.0622 50.2757H31.794C31.8457 50.2757 31.8878 50.2336 31.8878 50.1819V48.4175C31.8877 48.3659 31.8456 48.3238 31.7939 48.3238ZM47.042 18.2302L47.1004 18.1521C47.5875 17.511 47.0658 16.5906 46.2583 16.6941C45.9726 16.7306 45.8138 16.8571 45.6389 17.0579L41.0811 22.3069C38.9564 24.7537 33.0412 24.7534 30.9168 22.3069L26.359 17.0579C26.1847 16.8566 26.0238 16.7304 25.7395 16.6941C24.9853 16.5974 24.3838 17.4376 24.9088 18.1653L31.297 26.9997L31.2923 27.003C32.0992 28.0841 32.6776 29.1865 32.5324 30.5925L31.7719 37.9509C31.7662 38.0064 31.8093 38.0543 31.8653 38.0543H32.8727C33.1094 38.0543 33.3011 38.2461 33.3011 38.4828V50.1819C33.3011 50.2336 33.3433 50.2757 33.3949 50.2757H38.603C38.6547 50.2757 38.6968 50.2336 38.6968 50.1819V38.4828C38.6968 38.2461 38.8886 38.0543 39.1253 38.0543H40.1328C40.1887 38.0543 40.2318 38.0064 40.2261 37.9509L39.4656 30.5925C39.3354 29.3319 39.8137 28.2249 40.5394 27.2229L47.042 18.2302ZM35.9989 18.7711C38.0578 18.7711 39.0966 21.2724 37.6388 22.7302C36.181 24.1879 33.6798 23.1492 33.6798 21.0903C33.6798 19.8096 34.7182 18.7711 35.9989 18.7711ZM26.394 31.9104C26.6809 32.1699 26.7031 32.6129 26.4435 32.8997C26.184 33.1866 25.741 33.2087 25.4542 32.9492L22.2057 30.0089C22.1454 29.9542 22.0491 29.997 22.0491 30.0784V40.7334C22.0542 42.2721 20.7969 43.5358 19.2466 43.5358C17.6991 43.5358 16.4442 42.2809 16.4442 40.7334C16.4442 38.6251 18.6766 37.3023 20.5059 38.2291C20.5685 38.2607 20.642 38.2156 20.642 38.1454V28.2856H20.6451C20.645 27.6837 21.3639 27.3577 21.8153 27.7662L26.394 31.9104Z" fill="#DF1E5A"></path></svg>