<svg xmlns="http://www.w3.org/2000/svg" width="70" height="70" viewBox="0 0 70 70" fill="none"><circle cx="35" cy="35" r="35" fill="#DF1E5A" fill-opacity="0.1"></circle><g clip-path="url(#clip0_17691_2134)"><path d="M35.4993 24.4079L30.8411 19.7497C29.303 18.2116 29.303 15.698 30.8411 14.1599C32.0979 12.8943 34.0051 12.6657 35.4993 13.4655C36.9934 12.6657 38.9006 12.8943 40.1575 14.1599C41.6956 15.698 41.6956 18.2116 40.1575 19.7497L35.4993 24.4079Z" fill="#DF1E5A"></path><path d="M18.2734 31.6328C15.3643 31.6328 13 29.2686 13 26.3594C13 23.4502 15.3643 21.0859 18.2734 21.0859C21.1826 21.0859 23.5469 23.4502 23.5469 26.3594C23.5469 29.2686 21.1826 31.6328 18.2734 31.6328Z" fill="#DF1E5A"></path><path d="M52.7266 31.6328C49.8174 31.6328 47.4531 29.2686 47.4531 26.3594C47.4531 23.4502 49.8174 21.0859 52.7266 21.0859C55.6357 21.0859 58 23.4502 58 26.3594C58 29.2686 55.6357 31.6328 52.7266 31.6328Z" fill="#DF1E5A"></path><path d="M58 57.9996H44.7286V39.2437L33.8389 34.1724C31.8702 33.2232 31.0088 30.8765 31.9053 28.9166C32.7403 27.15 34.9112 26.0074 37.1348 26.9654L54.3526 34.9634C56.6026 36.0884 58.0088 38.356 58.0088 40.8609V57.9996H58Z" fill="#DF1E5A"></path><path d="M35.5 50.0898C32.5908 50.0898 30.2266 47.7256 30.2266 44.8164C30.2266 41.9072 32.5908 39.543 35.5 39.543C38.4092 39.543 40.7734 41.9072 40.7734 44.8164C40.7734 47.7256 38.4092 50.0898 35.5 50.0898Z" fill="#DF1E5A"></path><path d="M42.0898 58H28.9062V56.6816C28.9062 53.043 31.8594 50.0898 35.498 50.0898C39.1367 50.0898 42.0898 53.043 42.0898 56.6816V58Z" fill="#DF1E5A"></path><path d="M29.0576 29.2246L16.9463 34.832C16.6826 35.0693 13 36.4141 13 40.8613V58H26.2715V39.2441L32.4062 36.3701C29.8135 34.9463 28.4863 32.0107 29.0576 29.2246Z" fill="#DF1E5A"></path></g><defs><clipPath id="clip0_17691_2134"><rect width="45" height="45" fill="white" transform="translate(13 13)"></rect></clipPath></defs></svg>