<svg width="24" height="24" viewBox="0 0 24 24" fill="none" xmlns="http://www.w3.org/2000/svg">
<path fill-rule="evenodd" clip-rule="evenodd" d="M12 3C9.35354 3 7.20854 5.2385 7.20854 8C7.20854 8.288 6.89004 8.908 6.62054 9.382C6.50304 9.588 6.70904 9.8435 6.93454 9.7705C7.29987 9.65269 7.66798 9.54365 8.03854 9.4435C8.01287 9.62583 8.00004 9.81133 8.00004 10C8.00043 10.5485 8.11365 11.0911 8.33264 11.5941C8.55164 12.097 8.87174 12.5495 9.27305 12.9235C9.67436 13.2975 10.1483 13.5849 10.6654 13.7679C11.1825 13.9509 11.7317 14.0256 12.279 13.9874C12.8262 13.9491 13.3597 13.7988 13.8463 13.5456C14.3329 13.2924 14.7622 12.9418 15.1076 12.5157C15.453 12.0895 15.707 11.5969 15.8539 11.0683C16.0008 10.5398 16.0375 9.98676 15.9615 9.4435C16.3321 9.54365 16.7002 9.65269 17.0655 9.7705C17.2915 9.8435 17.497 9.588 17.3795 9.382C17.1095 8.908 16.7915 8.288 16.7915 8C16.7915 5.2385 14.6465 3 12 3ZM11.9135 4.5625C11.9194 4.54419 11.9309 4.52821 11.9464 4.51686C11.9619 4.50552 11.9806 4.49941 11.9998 4.49941C12.019 4.49941 12.0377 4.50552 12.0532 4.51686C12.0687 4.52821 12.0802 4.54419 12.086 4.5625L12.333 5.3225C12.3388 5.34079 12.3502 5.35677 12.3657 5.3681C12.3812 5.37944 12.3999 5.38553 12.419 5.3855H13.2185C13.306 5.3855 13.3425 5.498 13.2715 5.5495L12.625 6.0195C12.6095 6.03065 12.598 6.04645 12.592 6.06461C12.5861 6.08277 12.5861 6.10234 12.592 6.1205L12.839 6.8805C12.8453 6.89876 12.8455 6.91854 12.8397 6.93695C12.8339 6.95536 12.8224 6.97144 12.8068 6.98283C12.7912 6.99422 12.7724 7.00034 12.7531 7.00028C12.7338 7.00022 12.715 6.99399 12.6995 6.9825L12.053 6.5125C12.0376 6.50117 12.0189 6.49506 11.9998 6.49506C11.9806 6.49506 11.962 6.50117 11.9465 6.5125L11.2995 6.9825C11.2841 6.99389 11.2654 7.00006 11.2461 7.00011C11.2269 7.00016 11.2082 6.9941 11.1927 6.98279C11.1771 6.97148 11.1656 6.95552 11.1597 6.93722C11.1538 6.91892 11.154 6.89923 11.16 6.881L11.407 6.121C11.4131 6.10283 11.4133 6.08318 11.4074 6.06492C11.4016 6.04667 11.3901 6.03075 11.3745 6.0195L10.7275 5.5495C10.7119 5.53829 10.7003 5.52241 10.6943 5.50415C10.6883 5.48589 10.6883 5.4662 10.6943 5.44793C10.7003 5.42966 10.7119 5.41377 10.7275 5.40254C10.7431 5.39132 10.7618 5.38535 10.781 5.3855H11.58C11.6195 5.3855 11.654 5.3605 11.6665 5.323L11.9135 4.5625ZM9.05754 9.4115C9.01954 9.6015 9.00037 9.79767 9.00004 10C9.00059 10.4186 9.08873 10.8324 9.25878 11.2148C9.42883 11.5973 9.67703 11.94 9.98742 12.2208C10.2978 12.5016 10.6635 12.7143 11.0611 12.8453C11.4586 12.9763 11.8792 13.0227 12.2957 12.9814C12.7122 12.9402 13.1155 12.8122 13.4796 12.6058C13.8437 12.3994 14.1606 12.119 14.4099 11.7828C14.6592 11.4466 14.8354 11.0619 14.9271 10.6535C15.0188 10.2451 15.0241 9.82204 14.9425 9.4115C12.8725 8.9105 11.1275 8.9105 9.05754 9.4115Z" fill="#E01C5B"/>
<path d="M17.5 12L20 10.5715V4.5H21V16L17.5 14.5V12ZM17.863 15.864L16.322 21H21V18.25C21 17.248 19.6685 16.429 17.863 15.864Z" fill="#E01C5B"/>
<path fill-rule="evenodd" clip-rule="evenodd" d="M16.899 15.5965C15.239 15.1895 13.339 14.977 11.7355 15.0035C8.129 15.062 3 16.22 3 18.25V21H15.278L16.899 15.5965ZM6.053 17.7765C6.11232 17.658 6.21627 17.5679 6.34199 17.526C6.46772 17.4841 6.60494 17.4938 6.7235 17.553L7.5 17.941L8.2765 17.553C8.33544 17.5212 8.40016 17.5016 8.46682 17.4953C8.53349 17.489 8.60074 17.4962 8.66459 17.5164C8.72843 17.5366 8.78757 17.5694 8.83849 17.6128C8.88942 17.6563 8.93109 17.7096 8.96103 17.7695C8.99098 17.8294 9.00859 17.8947 9.01282 17.9615C9.01705 18.0283 9.00782 18.0953 8.98566 18.1585C8.96351 18.2217 8.92889 18.2798 8.88385 18.3294C8.83882 18.3789 8.78429 18.4189 8.7235 18.447L7.7235 18.947C7.6541 18.9817 7.57758 18.9997 7.5 18.9997C7.42242 18.9997 7.3459 18.9817 7.2765 18.947L6.2765 18.447C6.15799 18.3877 6.06789 18.2837 6.02598 18.158C5.98407 18.0323 5.99379 17.8951 6.053 17.7765Z" fill="#E01C5B"/>
<path d="M6.07096 14.669C6.13118 14.6405 6.1851 14.6003 6.22957 14.5507C6.27403 14.5011 6.30814 14.4432 6.32988 14.3802C6.35163 14.3172 6.36058 14.2506 6.3562 14.1841C6.35182 14.1176 6.33421 14.0527 6.30439 13.9932C6.27458 13.9336 6.23316 13.8806 6.18258 13.8372C6.13199 13.7939 6.07326 13.7611 6.00983 13.7408C5.94639 13.7205 5.87954 13.713 5.81319 13.7189C5.74684 13.7248 5.68233 13.7439 5.62346 13.775L3.77596 14.7C3.65846 14.76 3.56945 14.8641 3.52833 14.9894C3.4872 15.1148 3.4973 15.2513 3.55641 15.3693C3.61551 15.4872 3.71885 15.577 3.84389 15.6191C3.96893 15.6612 4.10555 15.6522 4.22396 15.594L6.07096 14.669Z" fill="#E01C5B"/>
</svg>
