<svg width="7" height="7" viewBox="0 0 7 7" fill="none" xmlns="http://www.w3.org/2000/svg">
<g clip-path="url(#clip0_328_153)">
<path fill-rule="evenodd" clip-rule="evenodd" d="M5.25 0.875C5.47319 0.874988 5.68794 0.960261 5.85033 1.11337C6.01271 1.26649 6.11045 1.47586 6.12354 1.69867L6.125 1.75V5.83333C6.12498 5.88189 6.11285 5.92967 6.08969 5.97235C6.06653 6.01503 6.03308 6.05125 5.99238 6.07773C5.95168 6.10421 5.90501 6.1201 5.85661 6.12398C5.80821 6.12785 5.7596 6.11958 5.71521 6.09992L5.68021 6.08183L4.88542 5.59242L4.09033 6.08183C4.04961 6.10685 4.00336 6.12148 3.95565 6.12443C3.90795 6.12738 3.86025 6.11856 3.81675 6.09875L3.78467 6.08183L2.98958 5.59242L2.1945 6.08183C2.15283 6.10748 2.10538 6.12223 2.05651 6.12473C2.00764 6.12723 1.95893 6.1174 1.91486 6.09613C1.87079 6.07487 1.83278 6.04286 1.80433 6.00305C1.77587 5.96324 1.75789 5.91691 1.75204 5.86833L1.75 5.83333V4.08333H1.16667C1.09523 4.08332 1.02628 4.0571 0.972892 4.00962C0.919506 3.96215 0.8854 3.89674 0.877042 3.82579L0.875 3.79167V1.60417C0.874971 1.41904 0.94536 1.24083 1.07189 1.1057C1.19841 0.970556 1.37161 0.888603 1.55633 0.876458L1.60417 0.875H5.25ZM4.375 3.5H3.20833C3.13098 3.5 3.05679 3.53073 3.00209 3.58543C2.9474 3.64013 2.91667 3.71431 2.91667 3.79167C2.91667 3.86902 2.9474 3.94321 3.00209 3.99791C3.05679 4.0526 3.13098 4.08333 3.20833 4.08333H4.375C4.45235 4.08333 4.52654 4.0526 4.58124 3.99791C4.63594 3.94321 4.66667 3.86902 4.66667 3.79167C4.66667 3.71431 4.63594 3.64013 4.58124 3.58543C4.52654 3.53073 4.45235 3.5 4.375 3.5ZM1.60417 1.45833C1.56549 1.45833 1.5284 1.4737 1.50105 1.50105C1.4737 1.5284 1.45833 1.56549 1.45833 1.60417V3.5H1.75V1.60417C1.75 1.56549 1.73464 1.5284 1.70729 1.50105C1.67994 1.4737 1.64284 1.45833 1.60417 1.45833ZM4.66667 2.33333H3.20833C3.13399 2.33342 3.06249 2.36188 3.00843 2.41291C2.95438 2.46395 2.92185 2.53369 2.91749 2.60791C2.91313 2.68212 2.93728 2.75519 2.98499 2.8122C3.03271 2.86921 3.10039 2.90584 3.17421 2.91462L3.20833 2.91667H4.66667C4.74101 2.91658 4.81251 2.88812 4.86657 2.83709C4.92062 2.78605 4.95315 2.71631 4.95751 2.64209C4.96186 2.56788 4.93772 2.49481 4.89001 2.4378C4.84229 2.38079 4.77461 2.34416 4.70079 2.33537L4.66667 2.33333Z" fill="#E01C5B"/>
</g>
<defs>
<clipPath id="clip0_328_153">
<rect width="7" height="7" fill="white"/>
</clipPath>
</defs>
</svg>
