<svg width="23" height="23" viewBox="0 0 23 23" fill="none" xmlns="http://www.w3.org/2000/svg">
<path d="M6.70841 22.0417C6.18133 22.0417 5.73028 21.8542 5.35525 21.4791C4.98022 21.1041 4.79239 20.6527 4.79175 20.125V2.875C4.79175 2.34792 4.97958 1.89686 5.35525 1.52183C5.73091 1.1468 6.18197 0.958971 6.70841 0.958332H16.2917C16.8188 0.958332 17.2702 1.14617 17.6459 1.52183C18.0215 1.8975 18.2091 2.34855 18.2084 2.875V5.84583C18.4959 5.95764 18.7275 6.13333 18.9032 6.37292C19.0789 6.6125 19.1667 6.88403 19.1667 7.1875V9.10417C19.1667 9.40764 19.0789 9.67917 18.9032 9.91875C18.7275 10.1583 18.4959 10.334 18.2084 10.4458V20.125C18.2084 20.6521 18.0209 21.1035 17.6459 21.4791C17.2708 21.8548 16.8195 22.0423 16.2917 22.0417H6.70841ZM6.70841 20.125H16.2917V2.875H6.70841V20.125ZM12.1834 5.474C12.3667 5.29064 12.4584 5.06319 12.4584 4.79167C12.4584 4.52014 12.3664 4.29269 12.1824 4.10933C11.9984 3.92597 11.771 3.83397 11.5001 3.83333C11.2292 3.83269 11.0017 3.92469 10.8177 4.10933C10.6337 4.29397 10.5417 4.52142 10.5417 4.79167C10.5417 5.06192 10.6337 5.28968 10.8177 5.47496C11.0017 5.66023 11.2292 5.75192 11.5001 5.75C11.771 5.74808 11.9987 5.65608 12.1834 5.474Z" fill="#E01C5B"/>
</svg>
