<svg width="16" height="16" viewBox="0 0 16 16" fill="none" xmlns="http://www.w3.org/2000/svg">
<g clip-path="url(#clip0_328_138)">
<path d="M14.5 0.5H1.5C0.9475 0.5 0.5 0.9475 0.5 1.5V14.5C0.5 15.0525 0.9475 15.5 1.5 15.5H14.5C15.0525 15.5 15.5 15.0525 15.5 14.5V1.5C15.5 0.9475 15.0525 0.5 14.5 0.5Z" fill="#BDBDBD"/>
<path d="M13.7125 0.5H1.4375C1.18942 0.5018 0.952006 0.601149 0.776579 0.776576C0.601152 0.952003 0.501802 1.18942 0.500003 1.4375V13.675C0.498753 14.1925 0.917503 14.6112 1.435 14.6125H13.7C14.2175 14.6138 14.6363 14.195 14.6375 13.6775V1.4375C14.6488 0.93125 14.2463 0.51125 13.74 0.5H13.7125Z" fill="#E0E0E0"/>
<path d="M4.9624 1.6125C4.9624 1.325 4.7624 1.2375 3.6124 1.275C2.6499 1.3125 2.1749 1.425 1.8874 1.775C1.6499 2.0625 1.5999 2.475 1.5624 2.825C1.5374 3.1 1.2874 4.6875 1.9999 4.225C2.0849 4.16875 2.15365 4.09125 2.1999 4C2.3499 3.7375 2.4374 3.5625 2.6124 3.3C3.2749 2.225 4.9624 1.9875 4.9624 1.6125Z" fill="white"/>
</g>
<defs>
<clipPath id="clip0_328_138">
<rect width="16" height="16" fill="white"/>
</clipPath>
</defs>
</svg>
