<svg width="24" height="24" viewBox="0 0 24 24" fill="none" xmlns="http://www.w3.org/2000/svg">
<path d="M22 3.94L12 0.439999L2 3.94V12C2 16.127 4.534 19.012 6.896 20.803C8.32208 21.8734 9.88622 22.7463 11.546 23.398C11.6593 23.4407 11.7733 23.4813 11.888 23.52L12 23.56L12.114 23.52C12.3327 23.4441 12.5494 23.3627 12.764 23.276C14.3097 22.6392 15.7681 21.8081 17.104 20.803C19.467 19.012 22 16.127 22 12V3.94ZM11.001 15.415L6.76 11.172L8.174 9.757L11.002 12.586L16.659 6.929L18.074 8.343L11.001 15.415Z" fill="#E01C5B"/>
</svg>
