<svg width="18" height="18" viewBox="0 0 18 18" fill="none" xmlns="http://www.w3.org/2000/svg">
<g clip-path="url(#clip0_340_453)">
<path d="M7.00034 3.16795C7.68734 3.66849 8.22228 4.35171 8.67908 5.00548L8.94474 5.39245L9.19538 5.762C9.32075 5.94511 9.37436 6.16793 9.34598 6.38801C9.3176 6.60809 9.20923 6.81003 9.04151 6.95537L7.86886 7.82607C7.81221 7.86697 7.77233 7.92704 7.75663 7.99511C7.74093 8.06319 7.75048 8.13465 7.78351 8.19622C8.04918 8.67873 8.5216 9.3974 9.06255 9.93821C9.6035 10.479 10.3566 10.9826 10.8729 11.2782C10.9377 11.3145 11.0139 11.3247 11.0858 11.3066C11.1578 11.2885 11.2202 11.2435 11.26 11.1809L12.0233 10.0193C12.1637 9.83296 12.3707 9.70811 12.6011 9.67092C12.8314 9.63373 13.0672 9.68709 13.2591 9.81983L13.6576 10.0956C14.4023 10.6124 15.2023 11.1995 15.8142 11.9824C15.9112 12.1073 15.9729 12.2559 15.9929 12.4128C16.0129 12.5696 15.9904 12.729 15.9278 12.8742C15.4247 14.0477 14.1517 15.047 12.8275 14.9983L12.6472 14.9881L12.5072 14.9761L12.3521 14.9581L12.1832 14.9352L11.9999 14.9052L11.9037 14.8872L11.7018 14.8439L11.596 14.8199L11.376 14.7634L11.1446 14.6973L10.903 14.6192C9.79343 14.243 8.38516 13.5039 6.94023 12.0594C5.4953 10.6148 4.75661 9.20752 4.38035 8.09827L4.30222 7.85671L4.2361 7.62537L4.1796 7.40544L4.13272 7.19753C4.11919 7.13241 4.10657 7.06711 4.09485 7.00164L4.0648 6.81837L4.04076 6.64952L4.02333 6.49449L4.01131 6.35448L4.00169 6.17421C3.953 4.85465 4.96337 3.57295 6.13182 3.0724C6.27245 3.01169 6.42646 2.98858 6.57872 3.00533C6.73098 3.02208 6.87628 3.07812 7.00034 3.16795Z" fill="#E01C5B"/>
</g>
<defs>
<clipPath id="clip0_340_453">
<rect width="18" height="18" fill="white"/>
</clipPath>
</defs>
</svg>
