<svg width="20" height="16" viewBox="0 0 20 16" fill="none" xmlns="http://www.w3.org/2000/svg">
<path d="M13 6.5C12.9011 6.5 12.8044 6.52932 12.7222 6.58427C12.64 6.63921 12.5759 6.7173 12.5381 6.80866C12.5002 6.90002 12.4903 7.00055 12.5096 7.09755C12.5289 7.19454 12.5765 7.28363 12.6464 7.35355C12.7164 7.42348 12.8055 7.4711 12.9025 7.49039C12.9994 7.50969 13.1 7.49978 13.1913 7.46194C13.2827 7.4241 13.3608 7.36001 13.4157 7.27779C13.4707 7.19556 13.5 7.09889 13.5 7C13.5 6.86739 13.4473 6.74021 13.3536 6.64645C13.2598 6.55268 13.1326 6.5 13 6.5ZM19.5 10H18V5C18 3.67392 17.4732 2.40215 16.5355 1.46447C15.5979 0.526784 14.3261 0 13 0L2 0C1.46957 0 0.960859 0.210714 0.585786 0.585786C0.210714 0.960859 0 1.46957 0 2L0 10C0 10.5304 0.210714 11.0391 0.585786 11.4142C0.960859 11.7893 1.46957 12 2 12H3C3 12.7956 3.31607 13.5587 3.87868 14.1213C4.44129 14.6839 5.20435 15 6 15C6.79565 15 7.55871 14.6839 8.12132 14.1213C8.68393 13.5587 9 12.7956 9 12H19.5C19.6326 12 19.7598 11.9473 19.8536 11.8536C19.9473 11.7598 20 11.6326 20 11.5V10.5C20 10.3674 19.9473 10.2402 19.8536 10.1464C19.7598 10.0527 19.6326 10 19.5 10ZM6 13.5C5.70333 13.5 5.41332 13.412 5.16664 13.2472C4.91997 13.0824 4.72771 12.8481 4.61418 12.574C4.50065 12.2999 4.47094 11.9983 4.52882 11.7074C4.5867 11.4164 4.72956 11.1491 4.93934 10.9393C5.14912 10.7296 5.41639 10.5867 5.70736 10.5288C5.99834 10.4709 6.29994 10.5006 6.57403 10.6142C6.84811 10.7277 7.08238 10.92 7.2472 11.1666C7.41203 11.4133 7.5 11.7033 7.5 12C7.49959 12.3977 7.34142 12.779 7.0602 13.0602C6.77899 13.3414 6.3977 13.4996 6 13.5ZM8 6C8 6.26522 7.89464 6.51957 7.70711 6.70711C7.51957 6.89464 7.26522 7 7 7H3C2.73478 7 2.48043 6.89464 2.29289 6.70711C2.10536 6.51957 2 6.26522 2 6V4C2 3.73478 2.10536 3.48043 2.29289 3.29289C2.48043 3.10536 2.73478 3 3 3H7C7.26522 3 7.51957 3.10536 7.70711 3.29289C7.89464 3.48043 8 3.73478 8 4V6ZM14 10H10V4C10 3.73478 10.1054 3.48043 10.2929 3.29289C10.4804 3.10536 10.7348 3 11 3H13C13.2652 3 13.5196 3.10536 13.7071 3.29289C13.8946 3.48043 14 3.73478 14 4V10Z" fill="#E01C5B"/>
</svg>
