<svg width="32" height="32" viewBox="0 0 32 32" fill="none" xmlns="http://www.w3.org/2000/svg">
<rect width="32" height="32" rx="8" fill="#FDE8EF"/>
<path d="M14.5 10H17.5M20.286 7H11.714C10.768 7 10 7.806 10 8.8V23.2C10 24.194 10.768 25 11.714 25H20.286C21.233 25 22 24.194 22 23.2V8.8C22 7.806 21.233 7 20.286 7Z" stroke="#E01C5B" stroke-width="1.5" stroke-linecap="round" stroke-linejoin="round"/>
<g clip-path="url(#clip0_328_40)">
<path fill-rule="evenodd" clip-rule="evenodd" d="M17.25 14.875C17.4732 14.875 17.6879 14.9603 17.8503 15.1134C18.0127 15.2665 18.1104 15.4759 18.1235 15.6987L18.125 15.75V19.8333C18.125 19.8819 18.1128 19.9297 18.0897 19.9724C18.0665 20.015 18.0331 20.0512 17.9924 20.0777C17.9517 20.1042 17.905 20.1201 17.8566 20.124C17.8082 20.1279 17.7596 20.1196 17.7152 20.0999L17.6802 20.0818L16.8854 19.5924L16.0903 20.0818C16.0496 20.1069 16.0034 20.1215 15.9557 20.1244C15.9079 20.1274 15.8602 20.1186 15.8168 20.0987L15.7847 20.0818L14.9896 19.5924L14.1945 20.0818C14.1528 20.1075 14.1054 20.1222 14.0565 20.1247C14.0076 20.1272 13.9589 20.1174 13.9149 20.0961C13.8708 20.0749 13.8328 20.0429 13.8043 20.003C13.7759 19.9632 13.7579 19.9169 13.752 19.8683L13.75 19.8333V18.0833H13.1667C13.0952 18.0833 13.0263 18.0571 12.9729 18.0096C12.9195 17.9622 12.8854 17.8967 12.877 17.8258L12.875 17.7917V15.6042C12.875 15.419 12.9454 15.2408 13.0719 15.1057C13.1984 14.9706 13.3716 14.8886 13.5563 14.8765L13.6042 14.875H17.25ZM16.375 17.5H15.2083C15.131 17.5 15.0568 17.5307 15.0021 17.5854C14.9474 17.6401 14.9167 17.7143 14.9167 17.7917C14.9167 17.869 14.9474 17.9432 15.0021 17.9979C15.0568 18.0526 15.131 18.0833 15.2083 18.0833H16.375C16.4524 18.0833 16.5265 18.0526 16.5812 17.9979C16.6359 17.9432 16.6667 17.869 16.6667 17.7917C16.6667 17.7143 16.6359 17.6401 16.5812 17.5854C16.5265 17.5307 16.4524 17.5 16.375 17.5ZM13.6042 15.4583C13.5655 15.4583 13.5284 15.4737 13.501 15.501C13.4737 15.5284 13.4583 15.5655 13.4583 15.6042V17.5H13.75V15.6042C13.75 15.5655 13.7346 15.5284 13.7073 15.501C13.6799 15.4737 13.6428 15.4583 13.6042 15.4583ZM16.6667 16.3333H15.2083C15.134 16.3334 15.0625 16.3619 15.0084 16.4129C14.9544 16.4639 14.9218 16.5337 14.9175 16.6079C14.9131 16.6821 14.9373 16.7552 14.985 16.8122C15.0327 16.8692 15.1004 16.9058 15.1742 16.9146L15.2083 16.9167H16.6667C16.741 16.9166 16.8125 16.8881 16.8666 16.8371C16.9206 16.7861 16.9532 16.7163 16.9575 16.6421C16.9619 16.5679 16.9377 16.4948 16.89 16.4378C16.8423 16.3808 16.7746 16.3442 16.7008 16.3354L16.6667 16.3333Z" fill="#E01C5B"/>
</g>
<defs>
<clipPath id="clip0_328_40">
<rect width="7" height="7" fill="white" transform="translate(12 14)"/>
</clipPath>
</defs>
</svg>
