<svg width="32" height="32" viewBox="0 0 32 32" fill="none" xmlns="http://www.w3.org/2000/svg">
<rect width="32" height="32" rx="8" fill="#FDE8EF"/>
<path d="M14.5 10H17.5M20.286 7H11.714C10.768 7 10 7.806 10 8.8V23.2C10 24.194 10.768 25 11.714 25H20.286C21.233 25 22 24.194 22 23.2V8.8C22 7.806 21.233 7 20.286 7Z" stroke="#E01C5B" stroke-width="1.5" stroke-linecap="round" stroke-linejoin="round"/>
<g clip-path="url(#clip0_328_34)">
<path d="M15.5001 15.4167C14.3542 15.4167 13.4167 16.3542 13.4167 17.5C13.4167 18.6458 14.3542 19.5833 15.5001 19.5833C16.6459 19.5833 17.5834 18.6458 17.5834 17.5C17.5834 16.3542 16.6459 15.4167 15.5001 15.4167ZM15.0834 18.5417L14.0417 17.5L14.3355 17.2062L15.0834 17.9521L16.6647 16.3708L16.9584 16.6667L15.0834 18.5417Z" fill="#E01C5B"/>
</g>
<defs>
<clipPath id="clip0_328_34">
<rect width="5" height="5" fill="white" transform="translate(13 15)"/>
</clipPath>
</defs>
</svg>
