<svg width="24" height="24" viewBox="0 0 24 24" fill="none" xmlns="http://www.w3.org/2000/svg">
<path d="M15.925 23C15.4917 23 15.0833 22.9127 14.7 22.738C14.3167 22.5633 13.9833 22.3173 13.7 22L9.225 16.65C9.05833 16.45 8.98333 16.221 9 15.963C9.01667 15.705 9.11667 15.484 9.3 15.3L9.775 14.8C10.075 14.5 10.4417 14.3127 10.875 14.238C11.3083 14.1633 11.7167 14.2257 12.1 14.425L15 15.875V7H17C18.1 7 19.0417 7.39167 19.825 8.175C20.6083 8.95833 21 9.9 21 11V19C21 20.1 20.6083 21.0417 19.825 21.825C19.0417 22.6083 18.1 23 17 23H15.925ZM6 22C5.45 22 4.97933 21.8043 4.588 21.413C4.19667 21.0217 4.00067 20.5507 4 20V4C4 3.45 4.196 2.97933 4.588 2.588C4.98 2.19667 5.45067 2.00067 6 2H15C15.55 2 16.021 2.196 16.413 2.588C16.805 2.98 17.0007 3.45067 17 4V7H15V4H6V20H12.025L13.7 22H6ZM11.213 6.712C11.4043 6.52067 11.5 6.28333 11.5 6C11.5 5.71667 11.404 5.47933 11.212 5.288C11.02 5.09667 10.7827 5.00067 10.5 5C10.2173 4.99933 9.98 5.09533 9.788 5.288C9.596 5.48067 9.5 5.718 9.5 6C9.5 6.282 9.596 6.51967 9.788 6.713C9.98 6.90633 10.2173 7.002 10.5 7C10.7827 6.998 11.0203 6.902 11.213 6.712ZM15.925 21H17C17.55 21 18.021 20.8083 18.413 20.425C18.805 20.0417 19.0007 19.5667 19 19V11C19 10.45 18.8043 9.97933 18.413 9.588C18.0217 9.19667 17.5507 9.00067 17 9V17.5C17 17.8833 16.8417 18.171 16.525 18.363C16.2083 18.555 15.8833 18.5673 15.55 18.4L11.675 16.475L15.15 20.65C15.25 20.7667 15.3667 20.8543 15.5 20.913C15.6333 20.9717 15.775 21.0007 15.925 21Z" fill="#E01C5B"/>
</svg>
