<svg width="18" height="18" viewBox="0 0 18 18" fill="none" xmlns="http://www.w3.org/2000/svg">
<path d="M5.14278 1.83375C6.00003 2.4585 6.66753 3.31125 7.23753 4.12725L7.56903 4.61025L7.88178 5.0715C8.03822 5.30005 8.10511 5.57816 8.0697 5.85285C8.03429 6.12753 7.89907 6.37959 7.68978 6.561L6.22653 7.64775C6.15584 7.6988 6.10608 7.77377 6.08649 7.85874C6.0669 7.94371 6.07882 8.0329 6.12003 8.10975C6.45153 8.712 7.04103 9.609 7.71603 10.284C8.39103 10.959 9.33078 11.5875 9.97503 11.9565C10.0558 12.0018 10.1509 12.0145 10.2407 11.9919C10.3306 11.9693 10.4083 11.9132 10.458 11.835L11.4105 10.3853C11.5856 10.1526 11.844 9.9968 12.1314 9.95039C12.4189 9.90397 12.7131 9.97058 12.9525 10.1362L13.4498 10.4805C14.379 11.1255 15.3773 11.8582 16.1408 12.8355C16.2619 12.9913 16.3389 13.1768 16.3638 13.3726C16.3888 13.5684 16.3607 13.7673 16.2825 13.9485C15.6548 15.4132 14.0663 16.6605 12.414 16.5997L12.189 16.587L12.0143 16.572L11.8208 16.5495L11.61 16.521L11.3813 16.4835L11.2613 16.461L11.0093 16.407L10.8773 16.377L10.6028 16.3065L10.314 16.224L10.0125 16.1265C8.62803 15.657 6.87078 14.7345 5.06778 12.9315C3.26478 11.1285 2.34303 9.372 1.87353 7.9875L1.77603 7.686L1.69353 7.39725L1.62303 7.12275L1.56453 6.86325C1.54766 6.78197 1.53191 6.70046 1.51728 6.61875L1.47978 6.39L1.44978 6.17925L1.42803 5.98575L1.41303 5.811L1.40103 5.586C1.34028 3.939 2.60103 2.33925 4.05903 1.7145C4.23452 1.63872 4.42668 1.60987 4.61668 1.63078C4.80668 1.65169 4.98798 1.72163 5.14278 1.83375ZM11.244 4.53L11.331 4.53975C11.877 4.63605 12.3784 4.90271 12.7635 5.30151C13.1485 5.70031 13.3974 6.21078 13.4745 6.75975C13.502 6.94963 13.4557 7.14283 13.3451 7.2996C13.2345 7.45637 13.068 7.56479 12.8799 7.60254C12.6918 7.6403 12.4963 7.60453 12.3338 7.50259C12.1712 7.40064 12.0539 7.24029 12.006 7.0545L11.9888 6.96825C11.9586 6.75308 11.8668 6.55124 11.7244 6.38714C11.5819 6.22303 11.3951 6.10368 11.1863 6.0435L11.07 6.01725C10.8817 5.98387 10.7132 5.8798 10.5991 5.72633C10.485 5.57286 10.4338 5.38157 10.456 5.19161C10.4782 5.00164 10.5722 4.82734 10.7187 4.70436C10.8652 4.58138 11.0531 4.51901 11.244 4.53ZM11.25 2.25C12.4435 2.25 13.5881 2.72411 14.432 3.56802C15.2759 4.41193 15.75 5.55653 15.75 6.75C15.7498 6.94116 15.6766 7.12502 15.5454 7.26403C15.4142 7.40303 15.2348 7.48668 15.044 7.49788C14.8532 7.50908 14.6652 7.44699 14.5187 7.3243C14.3721 7.20161 14.2779 7.02757 14.2553 6.83775L14.25 6.75C14.25 5.98842 13.9602 5.25537 13.4396 4.69952C12.919 4.14368 12.2065 3.80663 11.4465 3.75675L11.25 3.75C11.0511 3.75 10.8604 3.67098 10.7197 3.53033C10.5791 3.38968 10.5 3.19891 10.5 3C10.5 2.80109 10.5791 2.61032 10.7197 2.46967C10.8604 2.32902 11.0511 2.25 11.25 2.25Z" fill="#E01C5B"/>
</svg>
