<svg xmlns="http://www.w3.org/2000/svg" width="18" height="22" viewBox="0 0 18 22" fill="none"><path d="M8.9987 21.8332C6.48898 21.2012 4.4171 19.7613 2.78307 17.5134C1.14905 15.2655 0.332031 12.7693 0.332031 10.0248V3.4165L8.9987 0.166504L17.6654 3.4165V10.0248C17.6654 12.7693 16.8484 15.2655 15.2143 17.5134C13.5803 19.7613 11.5084 21.2012 8.9987 21.8332ZM8.9987 19.5582C10.7501 19.0165 12.2126 17.9467 13.3862 16.3488C14.5598 14.7509 15.2459 12.9679 15.4445 10.9998H8.9987V2.46859L2.4987 4.90609V10.5123C2.4987 10.6387 2.51675 10.8012 2.55286 10.9998H8.9987V19.5582Z" fill="#DF1E5A"></path></svg>