<svg width="24" height="24" viewBox="0 0 24 24" fill="none" xmlns="http://www.w3.org/2000/svg">
<path d="M17.5 4.75C17.5 5.21413 17.3156 5.65925 16.9874 5.98744C16.6592 6.31563 16.2141 6.5 15.75 6.5C15.2859 6.5 14.8408 6.31563 14.5126 5.98744C14.1844 5.65925 14 5.21413 14 4.75C14 4.28587 14.1844 3.84075 14.5126 3.51256C14.8408 3.18437 15.2859 3 15.75 3C16.2141 3 16.6592 3.18437 16.9874 3.51256C17.3156 3.84075 17.5 4.28587 17.5 4.75Z" fill="#E01C5B"/>
<path fill-rule="evenodd" clip-rule="evenodd" d="M15.75 5.5C15.9489 5.5 16.1397 5.42098 16.2803 5.28033C16.421 5.13968 16.5 4.94891 16.5 4.75C16.5 4.55109 16.421 4.36032 16.2803 4.21967C16.1397 4.07902 15.9489 4 15.75 4C15.5511 4 15.3603 4.07902 15.2197 4.21967C15.079 4.36032 15 4.55109 15 4.75C15 4.94891 15.079 5.13968 15.2197 5.28033C15.3603 5.42098 15.5511 5.5 15.75 5.5ZM15.75 6.5C15.9798 6.5 16.2074 6.45474 16.4197 6.36679C16.632 6.27884 16.8249 6.14994 16.9874 5.98744C17.1499 5.82493 17.2788 5.63202 17.3668 5.4197C17.4547 5.20738 17.5 4.97981 17.5 4.75C17.5 4.52019 17.4547 4.29262 17.3668 4.0803C17.2788 3.86798 17.1499 3.67507 16.9874 3.51256C16.8249 3.35006 16.632 3.22116 16.4197 3.13321C16.2074 3.04527 15.9798 3 15.75 3C15.2859 3 14.8408 3.18437 14.5126 3.51256C14.1844 3.84075 14 4.28587 14 4.75C14 5.21413 14.1844 5.65925 14.5126 5.98744C14.8408 6.31563 15.2859 6.5 15.75 6.5ZM9.5 8C9.23478 8 8.98043 8.10536 8.79289 8.29289C8.60536 8.48043 8.5 8.73478 8.5 9C8.5 9.26522 8.60536 9.51957 8.79289 9.70711C8.98043 9.89464 9.23478 10 9.5 10H13V20C13 20.2652 13.1054 20.5196 13.2929 20.7071C13.4804 20.8946 13.7348 21 14 21C14.2652 21 14.5196 20.8946 14.7071 20.7071C14.8946 20.5196 15 20.2652 15 20V15.5H16.5V20C16.5 20.2652 16.6054 20.5196 16.7929 20.7071C16.9804 20.8946 17.2348 21 17.5 21C17.7652 21 18.0196 20.8946 18.2071 20.7071C18.3946 20.5196 18.5 20.2652 18.5 20V13.9585C19.24 13.8311 19.9054 13.4309 20.3648 12.837C20.8242 12.243 21.0442 11.4983 20.9815 10.75C20.9187 10.0018 20.5776 9.3042 20.0257 8.79508C19.4737 8.28595 18.7509 8.00226 18 8H9.5ZM19.5 11C19.5 10.7348 19.3946 10.4804 19.2071 10.2929C19.0196 10.1054 18.7652 10 18.5 10V12C18.7652 12 19.0196 11.8946 19.2071 11.7071C19.3946 11.5196 19.5 11.2652 19.5 11Z" fill="#E01C5B"/>
<path fill-rule="evenodd" clip-rule="evenodd" d="M3 16C3 15.7348 3.10536 15.4804 3.29289 15.2929C3.48043 15.1054 3.73478 15 4 15H10.5C10.7652 15 11.0196 15.1054 11.2071 15.2929C11.3946 15.4804 11.5 15.7348 11.5 16V20C11.5 20.2652 11.3946 20.5196 11.2071 20.7071C11.0196 20.8946 10.7652 21 10.5 21H4C3.73478 21 3.48043 20.8946 3.29289 20.7071C3.10536 20.5196 3 20.2652 3 20V16ZM5 19.5V16.5H6V19.5H5ZM8.5 16.5V19.5H9.5V16.5H8.5ZM5.5 14C5.5 13.7348 5.60536 13.4804 5.79289 13.2929C5.98043 13.1054 6.23478 13 6.5 13H8C8.26522 13 8.51957 13.1054 8.70711 13.2929C8.89464 13.4804 9 13.7348 9 14V15H8V14H6.5V15H5.5V14Z" fill="#E01C5B"/>
</svg>
