<svg width="86" height="86" viewBox="0 0 86 86" fill="none" xmlns="http://www.w3.org/2000/svg">
<path fill-rule="evenodd" clip-rule="evenodd" d="M58.8138 47.3732V15.82H62.8371C60.3089 11.4442 57.7853 7.06394 55.257 2.68835C52.7288 7.06394 50.2005 11.4444 47.6722 15.82H51.7003V50.8062C53.7811 49.2112 56.1903 48.0256 58.8138 47.3732ZM21.3042 75.6363V53.9914H25.3322C22.804 49.6158 20.2804 45.2353 17.7523 40.8598C15.224 45.2355 12.6958 49.6158 10.1675 53.9914H14.1956V75.6363H21.3042ZM40.0589 75.6363V38.7504H44.0869C41.5587 34.3699 39.0304 29.9944 36.5021 25.6139C33.9739 29.9944 31.4505 34.3699 28.9222 38.7504H32.9503V75.6363H40.0589ZM47.5484 18.1386C48.2007 18.1386 48.7244 18.6671 48.7244 19.3147C48.7244 19.967 48.2007 20.4907 47.5484 20.4907H7.75815V77.9835H48.0436C48.5912 78.7024 49.1863 79.3834 49.8244 80.0166C49.6102 80.2165 49.3292 80.3356 49.015 80.3356H6.5822C5.92998 80.3356 5.40625 79.8119 5.40625 79.1597V19.3149C5.40625 18.6674 5.92998 18.1388 6.5822 18.1388H47.5486L47.5484 18.1386ZM67.6031 47.016C67.6031 47.0874 67.5935 47.154 67.5841 47.2254C66.8222 47.0635 66.0415 46.9446 65.251 46.873V20.4909H62.9607C62.3132 20.4909 61.7848 19.9671 61.7848 19.3149C61.7848 18.6674 62.3132 18.1388 62.9607 18.1388H66.4269C67.0745 18.1388 67.6029 18.6672 67.6029 19.3149V47.0163L67.6031 47.016ZM63.5179 49.149C72.9549 49.149 80.6015 56.7956 80.6015 66.2326C80.6015 75.6696 72.9549 83.3115 63.5179 83.3115C54.0809 83.3115 46.439 75.6649 46.439 66.2326C46.439 56.8003 54.0856 49.149 63.5179 49.149ZM62.3419 54.1627C62.3419 53.5152 62.8704 52.9868 63.5179 52.9868C64.1703 52.9868 64.694 53.5152 64.694 54.1627V56.5768C66.7414 56.9292 68.7935 58.1385 70.3267 60.5763C70.6695 61.1238 70.5076 61.8475 69.96 62.1951C69.4124 62.538 68.6839 62.376 68.3411 61.8285C66.3509 58.6623 62.9513 58.1147 60.5087 59.581C59.209 60.3619 58.2709 61.7665 59.3899 63.2092C60.885 65.1375 67.3412 65.0279 69.5077 67.8229C72.2931 71.4129 68.9552 75.3982 64.694 75.9362V78.2978C64.694 78.9502 64.1703 79.4739 63.5179 79.4739C62.8704 79.4739 62.3419 78.9502 62.3419 78.2978V75.8886C60.2993 75.5315 58.2472 74.3269 56.7142 71.8844C56.3713 71.3368 56.5333 70.6131 57.0808 70.2704C57.6284 69.9229 58.352 70.0895 58.6997 70.6371C60.69 73.8033 64.0895 74.3509 66.5321 72.8796C67.832 72.0988 68.7651 70.6942 67.6511 69.2562C66.156 67.3279 59.6996 67.4326 57.5333 64.6424C54.7528 61.0525 58.076 57.0672 62.3423 56.5244V54.1627H62.3419Z" fill="#DF1E5A"/>
</svg>
