<svg width="98" height="98" viewBox="0 0 98 98" fill="none" xmlns="http://www.w3.org/2000/svg">
<path d="M83.3009 55.5337C83.3009 43.8002 73.7949 34.3 62.0672 34.3C50.3406 34.3 40.8375 43.8002 40.8375 55.5337C38.1327 55.5337 35.9375 57.7279 35.9375 60.4337V76.7664C35.9375 79.4722 38.1327 81.6664 40.8375 81.6664H50.6375C51.5371 81.6664 52.2672 80.9363 52.2672 80.0337V68.6C52.2672 66.8037 51.6136 64.0186 50.81 62.4114L47.3712 55.5337C47.3712 47.4115 53.946 40.8337 62.0682 40.8337C70.1836 40.8337 76.7682 47.4115 76.7682 55.5337L73.3294 62.4114C72.5258 64.0195 71.8682 66.8037 71.8682 68.6V80.41C68.9645 82.276 65.6021 83.3 62.0672 83.3H58.8009V88.2001H62.0672C68.3236 88.2001 73.986 85.702 78.1451 81.6664H83.3009C86.0067 81.6664 88.2009 79.4722 88.2009 76.7664V60.4337C88.2009 57.7279 86.0067 55.5337 83.3009 55.5337Z" fill="#DF1E5A"/>
<path d="M62.0632 29.4C63.1736 29.4 64.2584 29.4922 65.3305 29.6264V16.3337C65.3305 12.741 62.3886 9.80005 58.7969 9.80005H16.3305C12.7369 9.80005 9.79688 12.741 9.79688 16.3337V35.9337C9.79688 39.5264 12.7369 42.4674 16.3305 42.4674V52.2674L32.6642 42.4674H39.4703C43.9959 34.6695 52.4161 29.4 62.0632 29.4ZM48.9969 22.8664C50.803 22.8664 52.2632 24.3276 52.2632 26.1327C52.2632 27.9389 50.803 29.4 48.9969 29.4C47.1947 29.4 45.7305 27.9389 45.7305 26.1337C45.7305 24.3276 47.1947 22.8664 48.9969 22.8664ZM26.1305 29.4C24.3283 29.4 22.8642 27.9389 22.8642 26.1337C22.8642 24.3285 24.3283 22.8674 26.1305 22.8674C27.9367 22.8674 29.3969 24.3285 29.3969 26.1337C29.3969 27.9389 27.9357 29.4 26.1305 29.4ZM34.2969 26.1337C34.2969 24.3285 35.761 22.8674 37.5632 22.8674C39.3684 22.8674 40.8296 24.3285 40.8296 26.1337C40.8296 27.9398 39.3684 29.4 37.5632 29.4C35.761 29.4 34.2969 27.9389 34.2969 26.1337Z" fill="#DF1E5A"/>
</svg>
