<svg width="89" height="89" viewBox="0 0 89 89" fill="none" xmlns="http://www.w3.org/2000/svg">
<path fill-rule="evenodd" clip-rule="evenodd" d="M44.5026 13.9866C56.7262 13.9866 66.6353 23.8956 66.6353 36.1192C66.6353 48.3428 56.7261 58.2519 44.5026 58.2519C32.2792 58.2519 22.37 48.3426 22.37 36.1192C22.37 23.8958 32.2792 13.9866 44.5026 13.9866ZM37.5851 71.9511C33.5087 72.9442 29.3005 71.2982 26.9787 67.748L24.0481 63.2668C23.6177 62.6087 23.1282 62.1566 22.4651 61.814L14.8076 78.2614C14.5908 78.7266 14.9854 79.2411 15.4909 79.1528L25.0935 77.475L29.9911 85.9033C30.2487 86.3463 30.8969 86.317 31.1132 85.8523L37.5851 71.9511ZM51.4203 71.9511L57.8923 85.8523C58.1085 86.317 58.7569 86.3462 59.0143 85.9033L63.9119 77.475L73.5145 79.1528C74.02 79.2411 74.4146 78.7266 74.1979 78.2614L66.5404 61.8138C65.8771 62.1564 65.3876 62.6087 64.9573 63.2667L62.0268 67.7478C59.7046 71.2982 55.4966 72.944 51.4203 71.9511ZM48.7661 4.22211C46.1996 2.30096 42.8057 2.30096 40.2392 4.22211L35.9526 7.43063C34.7803 8.30812 33.5463 8.75729 32.0842 8.83864L26.7383 9.13606C23.5372 9.31406 20.9373 11.4956 20.2062 14.617L18.985 19.8301C18.6509 21.2559 17.9945 22.3931 16.9267 23.3952L13.0225 27.0595C10.6849 29.2535 10.0956 32.5957 11.5419 35.4569L13.9574 40.2355C14.6179 41.5423 14.846 42.8356 14.6722 44.2895L14.0367 49.606C13.6561 52.7893 15.3531 55.7286 18.3001 56.9908L23.2221 59.0988C24.5682 59.6752 25.5741 60.5193 26.3755 61.7448L29.3061 66.2259C31.0609 68.909 34.2499 70.0698 37.3188 69.1422L42.4442 67.5932C43.8459 67.1696 45.159 67.1696 46.5608 67.5932L51.6861 69.1422C54.755 70.0698 57.9441 68.909 59.6989 66.2259L62.6294 61.7448C63.431 60.5193 64.4369 59.6752 65.783 59.0988L70.705 56.9909C73.6521 55.7288 75.349 52.7897 74.9685 49.6062L74.3329 44.2897C74.1591 42.8356 74.3872 41.5425 75.0477 40.2357L77.4632 35.4571C78.9095 32.5959 78.3202 29.2537 75.9826 27.0597L72.0784 23.3954C71.0107 22.3932 70.3542 21.2561 70.0201 19.8303L68.7989 14.6172C68.0676 11.4958 65.4679 9.31423 62.2668 9.13623L56.9209 8.83881C55.4589 8.75746 54.2248 8.30846 53.0525 7.43081L48.7661 4.22211ZM47.2882 30.1449C47.3555 29.9735 47.4581 29.8127 47.5961 29.6739C48.1363 29.1331 48.7216 28.2585 48.8278 27.488V23.8878C48.8278 20.669 46.1943 18.0366 42.9757 18.0366V22.9158C42.9757 26.9696 39.3352 28.8065 36.4815 30.9494L36.4791 47.0233C40.0999 50.4912 43.5947 49.7075 49.824 48.635C50.0476 48.7072 50.2857 48.7459 50.5324 48.7459H54.2859C55.5647 48.7459 56.611 47.6997 56.611 46.421C56.611 45.1423 55.5647 44.0957 54.2859 44.0957H55.6727C56.9515 44.0955 57.9978 43.0494 57.9978 41.7704C57.9978 40.4915 56.9515 39.4453 55.6727 39.4453H57.3042C58.5831 39.4453 59.6293 38.399 59.6293 37.1201C59.6293 35.8413 58.5831 34.795 57.3042 34.795H56.3247C57.6035 34.795 58.6498 33.7487 58.6498 32.4699C58.6498 31.191 57.6034 30.1449 56.3247 30.1448C53.3128 30.1449 50.3005 30.1449 47.2882 30.1449ZM33.697 47.0233L33.7107 30.9513H30.2849V47.0233H33.697Z" fill="#DF1E5A"/>
</svg>
