<svg xmlns="http://www.w3.org/2000/svg" width="75" height="75" viewBox="0 0 75 75" fill="none"><circle cx="37.5" cy="37.5" r="37.5" fill="#DF1E5A" fill-opacity="0.1"></circle><path d="M28.4062 49.501C27.1352 49.501 26.0625 50.2166 26.0625 51.0635C26.0625 51.9103 27.1352 52.626 28.4062 52.626C29.6773 52.626 30.75 51.9103 30.75 51.0635C30.75 50.2166 29.6773 49.501 28.4062 49.501Z" fill="#DF1E5A"></path><path d="M39.3438 46.376C38.0727 46.376 37 47.0916 37 47.9385C37 48.7853 38.0727 49.501 39.3438 49.501C40.6148 49.501 41.6875 48.7853 41.6875 47.9385C41.6875 47.0916 40.6148 46.376 39.3438 46.376Z" fill="#DF1E5A"></path><path d="M49.5 40.125C48.9315 40.125 48.3777 40.184 47.8371 40.2809C47.1454 34.9063 42.5628 30.75 37 30.75C31.4372 30.75 26.8546 34.9063 26.1629 40.2809C25.6223 40.184 25.0685 40.125 24.5 40.125C19.3223 40.125 15.125 44.3223 15.125 49.5C15.125 54.6777 19.3223 58.875 24.5 58.875C26.7777 58.875 28.8645 58.0616 30.4889 56.711C32.3094 58.0644 34.5573 58.875 37 58.875C39.4427 58.875 41.6906 58.0644 43.5111 56.711C45.1355 58.0616 47.2223 58.875 49.5 58.875C54.6777 58.875 58.875 54.6777 58.875 49.5C58.875 44.3223 54.6777 40.125 49.5 40.125ZM43.25 47.9385C43.25 49.6613 41.4983 51.0635 39.3438 51.0635C37.1892 51.0635 35.4375 49.6613 35.4375 47.9385C35.4375 46.2158 37.1892 44.8135 39.3438 44.8135C40.2267 44.8135 41.0327 45.0579 41.6875 45.4544V38.8184L32.3125 41.4963V51.0635C32.3125 52.7863 30.5608 54.1885 28.4062 54.1885C26.2517 54.1885 24.5 52.7863 24.5 51.0635C24.5 49.3408 26.2517 47.9385 28.4062 47.9385C29.2892 47.9385 30.0952 48.1829 30.75 48.5794V40.9073C30.75 40.5579 30.9819 40.2527 31.3161 40.1566L42.2536 37.0316C42.4932 36.9614 42.7419 37.0102 42.9387 37.1582C43.1356 37.3062 43.25 37.5366 43.25 37.7823V47.9385Z" fill="#DF1E5A"></path><path d="M37 27.625C36.1364 27.625 35.4375 26.9261 35.4375 26.0625V16.6875C35.4375 15.8239 36.1364 15.125 37 15.125C37.8636 15.125 38.5625 15.8239 38.5625 16.6875V26.0625C38.5625 26.9261 37.8636 27.625 37 27.625Z" fill="#DF1E5A"></path><path d="M41.6875 26.0625C40.8239 26.0625 40.125 25.3636 40.125 24.5V18.25C40.125 17.3864 40.8239 16.6875 41.6875 16.6875C42.5511 16.6875 43.25 17.3864 43.25 18.25V24.5C43.25 25.3636 42.5511 26.0625 41.6875 26.0625Z" fill="#DF1E5A"></path><path d="M18.25 27.625C17.3864 27.625 16.6875 26.9261 16.6875 26.0625V16.6875C16.6875 15.8239 17.3864 15.125 18.25 15.125C19.1136 15.125 19.8125 15.8239 19.8125 16.6875V26.0625C19.8125 26.9261 19.1136 27.625 18.25 27.625Z" fill="#DF1E5A"></path><path d="M22.9375 26.0625C22.0739 26.0625 21.375 25.3636 21.375 24.5V18.25C21.375 17.3864 22.0739 16.6875 22.9375 16.6875C23.8011 16.6875 24.5 17.3864 24.5 18.25V24.5C24.5 25.3636 23.8011 26.0625 22.9375 26.0625Z" fill="#DF1E5A"></path><path d="M55.75 27.625C54.8864 27.625 54.1875 26.9261 54.1875 26.0625V16.6875C54.1875 15.8239 54.8864 15.125 55.75 15.125C56.6136 15.125 57.3125 15.8239 57.3125 16.6875V26.0625C57.3125 26.9261 56.6136 27.625 55.75 27.625Z" fill="#DF1E5A"></path><path d="M51.0625 26.0625C50.1989 26.0625 49.5 25.3636 49.5 24.5V18.25C49.5 17.3864 50.1989 16.6875 51.0625 16.6875C51.9261 16.6875 52.625 17.3864 52.625 18.25V24.5C52.625 25.3636 51.9261 26.0625 51.0625 26.0625Z" fill="#DF1E5A"></path><path d="M46.375 24.5C45.5114 24.5 44.8125 23.8011 44.8125 22.9375V19.8125C44.8125 18.9489 45.5114 18.25 46.375 18.25C47.2386 18.25 47.9375 18.9489 47.9375 19.8125V22.9375C47.9375 23.8011 47.2386 24.5 46.375 24.5Z" fill="#DF1E5A"></path><path d="M32.3125 26.0625C31.4489 26.0625 30.75 25.3636 30.75 24.5V18.25C30.75 17.3864 31.4489 16.6875 32.3125 16.6875C33.1761 16.6875 33.875 17.3864 33.875 18.25V24.5C33.875 25.3636 33.1761 26.0625 32.3125 26.0625Z" fill="#DF1E5A"></path><path d="M27.625 24.5C26.7614 24.5 26.0625 23.8011 26.0625 22.9375V19.8125C26.0625 18.9489 26.7614 18.25 27.625 18.25C28.4886 18.25 29.1875 18.9489 29.1875 19.8125V22.9375C29.1875 23.8011 28.4886 24.5 27.625 24.5Z" fill="#DF1E5A"></path></svg>