<svg xmlns="http://www.w3.org/2000/svg" width="73" height="73" viewBox="0 0 73 73" fill="none"><circle cx="36.5" cy="36.5" r="36.5" fill="#DF1E5A" fill-opacity="0.1"></circle><g clip-path="url(#clip0_19708_1199)"><path d="M47.3416 18.761C48.602 16.0037 47.3886 12.7467 44.6313 11.4862C41.874 10.2257 38.617 11.4391 37.3565 14.1964C36.096 16.9537 37.3094 20.2108 40.0667 21.4713C42.824 22.7317 46.0811 21.5183 47.3416 18.761Z" fill="#DF1E5A"></path><path d="M39.5942 46.5655C40.8922 47.6891 42.1253 49.0698 43.0133 50.6792C43.9005 52.2959 44.4666 54.1217 44.471 56.3382C44.471 56.7506 44.4505 57.1803 44.4071 57.6286C44.251 59.2368 45.429 60.6677 47.0379 60.8235C47.1343 60.833 47.2299 60.8374 47.3245 60.8374C48.8132 60.8374 50.0863 59.7055 50.2336 58.1932C50.2944 57.5649 50.3246 56.9462 50.3246 56.3384C50.3295 52.9754 49.3873 50.0258 48.0093 47.6223C46.288 44.6217 43.9542 42.433 41.8299 40.8683L42.5518 37.3009C41.7787 37.1638 40.5956 36.9475 40.0742 36.6792C39.3527 36.3053 38.663 35.8205 37.9643 35.1959C37.4177 34.7047 36.9792 34.2274 36.6551 33.8438L33.0499 36.0029C33.0563 36.4607 32.9336 36.9141 32.6946 37.3087C32.5177 37.6001 32.2795 37.8604 31.9792 38.0633C31.6368 38.2947 31.2454 38.4276 30.8378 38.4652C30.7637 38.4718 30.6903 38.4813 30.6152 38.4813H30.6147C30.513 38.4813 30.4122 38.4752 30.313 38.4623L30.2362 39.1691L20.0794 51.0543L20.0109 51.3277L19.9431 51.2143L15.7055 56.1721C14.6558 57.401 14.8004 59.2478 16.0294 60.2982C16.5808 60.7694 17.2566 60.9999 17.9293 60.9999C18.7556 60.9999 19.5767 60.6521 20.1557 59.9743L34.432 43.2684C35.3432 43.6786 37.5416 44.7783 39.5942 46.5655Z" fill="#DF1E5A"></path><path d="M47.1376 32.1454L47.1393 31.683L47.1562 27.5542L44.1602 29.3485L44.051 29.4139L40.9233 31.2869C41.456 31.8137 42.5874 32.8164 43.4181 33.0149L44.1141 29.5751C44.3712 30.2406 44.5178 30.9257 44.5139 31.4542C44.5139 31.8613 44.4378 32.16 44.331 32.3644C44.218 32.5688 44.0939 32.721 43.7705 32.9024C43.639 32.9727 43.5261 33.0137 43.4186 33.0395L43.4176 33.0481C43.4154 33.0483 43.4132 33.0485 43.4113 33.0488C43.3854 33.0522 43.3593 33.0537 43.3332 33.0578V33.0573C43.2635 33.0688 43.193 33.0744 43.1176 33.0749C42.842 33.0766 42.4874 32.9856 42.0855 32.7773C41.5316 32.4966 40.9387 31.9996 40.4929 31.5447C40.4556 31.5064 40.4173 31.4681 40.3819 31.4306C40.2985 31.343 40.2236 31.2599 40.1529 31.1801C40.0295 31.0411 39.9244 30.9155 39.8473 30.8187C39.7866 30.7431 39.7417 30.684 39.7141 30.647C39.7005 30.6287 39.691 30.616 39.6863 30.6094L39.6861 30.6096C39.5873 30.4692 39.4717 30.348 39.3461 30.2423C39.2039 30.1226 39.0473 30.0255 38.8815 29.9521C38.2754 29.6841 37.5486 29.7294 36.9675 30.1397C36.4711 30.4897 36.1877 31.0289 36.146 31.5906C36.1324 31.7723 36.1446 31.9562 36.1826 32.1369C36.2358 32.3886 36.3394 32.6342 36.497 32.8578C36.5158 32.8832 36.6077 33.0132 36.7636 33.2102C36.8489 33.318 36.9533 33.4466 37.0767 33.5905C37.3765 33.9402 37.7838 34.3792 38.2881 34.8321C38.8361 35.3228 39.4988 35.8325 40.2961 36.2454C40.9655 36.5898 41.7474 36.87 42.6215 36.951C42.7618 36.9639 42.9042 36.9725 43.0491 36.9744C43.0722 36.9744 43.0947 36.9769 43.1176 36.9769C43.3413 36.9769 43.5703 36.9583 43.8017 36.9278C43.8588 36.9235 43.9164 36.9169 43.9742 36.9074C44.5292 36.8149 45.0907 36.6244 45.6219 36.3371C46.585 35.8255 47.3457 35.0411 47.7959 34.1592C48.1227 33.5271 48.2983 32.8664 48.3725 32.2166L47.5991 32.1718L47.1376 32.1454Z" fill="#DF1E5A"></path><path d="M28.9936 37.8637C28.8433 37.7303 28.7082 37.5774 28.5931 37.4064C28.4753 37.2326 28.3641 37.0591 28.2534 36.8862L21.1779 41.1233L13.2812 39.1422L14.1678 40.6221L20.535 42.2189L18.9378 48.5866L19.8241 50.0665L21.8054 42.1686L28.9936 37.8637Z" fill="#DF1E5A"></path><path d="M36.1144 33.1603L36.1124 33.1577L36.098 33.1384C35.9346 32.9067 35.8202 32.6553 35.7473 32.397L32.4375 34.3793C32.5012 34.4773 32.5653 34.5761 32.6333 34.6766C32.8021 34.9266 32.9153 35.1973 32.9814 35.4749L36.3422 33.462C36.2458 33.3386 36.168 33.2345 36.1144 33.1603Z" fill="#DF1E5A"></path><path d="M40.1044 30.3552C40.13 30.3891 40.1712 30.4439 40.2278 30.5139C40.3081 30.6147 40.4268 30.7581 40.5783 30.9251L43.8498 28.9657L44.2913 28.7014L47.205 26.9563L47.6481 26.691L47.6433 27.8877L47.6272 31.6856L48.4101 31.7305L49.0064 31.7649L50.0239 22.5929C50.4151 22.2571 50.6802 21.7495 50.7136 21.1669C50.7755 20.0908 50.0263 19.1721 49.04 19.1155C48.055 19.059 47.205 19.8855 47.1435 20.962C47.1101 21.5447 47.3155 22.0795 47.6659 22.4575L47.6542 25.2664L46.5855 25.9066L44.6183 27.0846L43.2328 27.9143L39.7812 29.9815C39.8912 30.0876 39.9949 30.2015 40.0846 30.3286L40.1044 30.3552Z" fill="#DF1E5A"></path><path d="M28.6689 36.6366C28.7745 36.802 28.8828 36.9676 28.9957 37.1344C29.1196 37.3178 29.2711 37.4707 29.4381 37.5968C29.5903 37.7117 29.7552 37.8051 29.9305 37.8702C30.0708 37.9222 30.2164 37.9573 30.3644 37.9766C30.4471 37.9875 30.5305 37.9936 30.6139 37.9936C30.9897 37.9936 31.3697 37.8851 31.7046 37.6588C32.1833 37.3354 32.4706 36.8361 32.5428 36.3054C32.5684 36.1186 32.5672 35.9286 32.5377 35.7406C32.495 35.4657 32.3948 35.1957 32.2287 34.9504C32.1555 34.8419 32.0875 34.7365 32.019 34.6302C31.9285 34.4907 31.8419 34.3529 31.7592 34.2173C31.4292 33.6778 31.1585 33.1707 30.939 32.6954C30.5222 31.793 30.2876 31.0045 30.1793 30.326C30.1259 29.9924 30.1013 29.6838 30.1017 29.4026C30.1142 27.9108 30.7007 26.9825 31.4783 26.2696C31.5351 26.2189 31.5951 26.174 31.6539 26.127L31.049 31.6862C31.2912 32.3469 31.6509 33.1058 32.177 33.9673L35.6607 31.8808C35.6132 31.066 35.9717 30.245 36.6863 29.7407C37.0997 29.449 37.5852 29.2948 38.0901 29.2948C38.5479 29.2948 38.9879 29.427 39.3676 29.6607L42.9318 27.5259L44.7495 26.4374L46.3065 25.505C46.0721 25.1865 45.8243 24.8899 45.5619 24.6187C45.1248 24.1895 44.6827 23.7917 44.0266 23.519C43.8549 23.4203 43.6657 23.3456 43.4605 23.3042L34.2252 21.435C34.0676 21.4033 33.9115 21.3943 33.7581 21.4018C33.6613 21.3948 33.5652 21.3892 33.4711 21.3892C32.6901 21.3948 31.9516 21.5831 31.1758 21.904C30.0266 22.3911 28.8196 23.212 27.8487 24.4619C26.8795 25.7045 26.1924 27.4096 26.1993 29.4024C26.1998 30.2445 26.3171 31.1264 26.561 32.0474C26.9078 33.3583 27.5146 34.7499 28.4113 36.2218C28.4952 36.3598 28.5796 36.4979 28.6689 36.6366Z" fill="#DF1E5A"></path></g><defs><clipPath id="clip0_19708_1199"><rect width="50" height="50" fill="white" transform="translate(7 11)"></rect></clipPath></defs></svg>