<svg xmlns="http://www.w3.org/2000/svg" width="75" height="75" viewBox="0 0 75 75" fill="none"><circle cx="37.5" cy="37.5" r="37.5" fill="#DF1E5A" fill-opacity="0.1"></circle><path d="M33.9575 54.2168C33.4185 54.2168 32.9805 54.6548 32.9805 55.1938C32.9805 55.7328 33.4185 56.1698 33.9575 56.1698C34.4965 56.1698 34.9345 55.7318 34.9345 55.1938C34.9345 54.6558 34.4965 54.2168 33.9575 54.2168Z" fill="#DF1E5A"></path><path d="M60.324 28.5179C59.786 28.4989 59.359 28.0569 59.359 27.5179C59.359 22.3739 55.187 18.1979 50.059 18.1979C48.794 18.1979 47.57 18.4469 46.422 18.9369C45.917 19.1539 45.338 18.9229 45.115 18.4239C43.624 15.0669 40.289 12.8979 36.619 12.8979C33.206 12.8979 30.075 14.7629 28.448 17.7649C28.21 18.2039 27.682 18.4019 27.214 18.2229C26.159 17.8219 25.057 17.6189 23.94 17.6189C18.812 17.6189 14.64 21.795 14.64 26.929C14.64 27.037 14.648 27.1409 14.655 27.2469L14.669 27.4699C14.682 27.7379 14.587 28 14.405 28.1969C14.223 28.3939 13.97 28.5099 13.702 28.5179C11.066 28.6019 9 30.7279 9 33.3589C9 36.0389 11.176 38.219 13.85 38.219H21.297C24.101 32.352 30.076 28.2789 37 28.2789C43.924 28.2789 49.9 32.352 52.703 38.219H60.149C62.823 38.219 64.999 36.0389 64.999 33.3589C64.999 30.7359 62.945 28.6099 60.324 28.5179Z" fill="#DF1E5A"></path><path d="M52.4138 45.6898C52.4138 37.1918 45.4998 30.2778 37.0018 30.2778C28.5038 30.2778 21.5898 37.1918 21.5898 45.6898C21.5898 54.1878 28.5038 61.1018 37.0018 61.1018C45.4998 61.1018 52.4138 54.1878 52.4138 45.6898Z" fill="#DF1E5A"></path><mask id="mask0_17691_2138" style="mask-type:alpha" maskUnits="userSpaceOnUse" x="24" y="34" width="24" height="24"><rect x="24" y="34" width="24" height="24" fill="#D9D9D9"></rect></mask><g mask="url(#mask0_17691_2138)"><path d="M38 54C36.9 54 35.9583 53.6083 35.175 52.825C34.3917 52.0417 34 51.1 34 50C34 48.9 34.3917 47.9583 35.175 47.175C35.9583 46.3917 36.9 46 38 46C38.3833 46 38.7375 46.0458 39.0625 46.1375C39.3875 46.2292 39.7 46.3667 40 46.55V38H46V41H42V50C42 51.1 41.6083 52.0417 40.825 52.825C40.0417 53.6083 39.1 54 38 54ZM26 50C26 48.35 26.3167 46.7958 26.95 45.3375C27.5833 43.8792 28.4417 42.6083 29.525 41.525C30.6083 40.4417 31.8792 39.5833 33.3375 38.95C34.7958 38.3167 36.35 38 38 38V40C36.6333 40 35.3417 40.2625 34.125 40.7875C32.9083 41.3125 31.8458 42.0292 30.9375 42.9375C30.0292 43.8458 29.3125 44.9042 28.7875 46.1125C28.2625 47.3208 28 48.6167 28 50H26ZM30 50C30 48.9 30.2125 47.8625 30.6375 46.8875C31.0625 45.9125 31.6375 45.0625 32.3625 44.3375C33.0875 43.6125 33.9333 43.0417 34.9 42.625C35.8667 42.2083 36.9 42 38 42V44C36.3333 44 34.9167 44.5833 33.75 45.75C32.5833 46.9167 32 48.3333 32 50H30Z" fill="#FCE9EF"></path></g><path d="M41.5707 54.2168C41.0317 54.2168 40.5938 54.6548 40.5938 55.1938C40.5938 55.7328 41.0317 56.1698 41.5707 56.1698C42.1097 56.1698 42.5467 55.7318 42.5467 55.1938C42.5467 54.6558 42.1087 54.2168 41.5707 54.2168Z" fill="#DF1E5A"></path></svg>