<svg xmlns="http://www.w3.org/2000/svg" width="66" height="66" viewBox="0 0 66 66" fill="none"><circle cx="33" cy="33" r="33" fill="#DF1E5A" fill-opacity="0.1"></circle><g clip-path="url(#clip0_19703_1196)"><path d="M30.4049 24.1994C33.7027 24.1994 36.3761 21.5259 36.3761 18.2281C36.3761 14.9303 33.7027 12.2568 30.4049 12.2568C27.107 12.2568 24.4336 14.9303 24.4336 18.2281C24.4336 21.5259 27.107 24.1994 30.4049 24.1994Z" fill="#DF1E5A"></path><path fill-rule="evenodd" clip-rule="evenodd" d="M48.5038 30.0449L35.7456 37.2283C35.5909 37.3153 35.4777 37.4614 35.4322 37.6332C35.3866 37.805 35.4124 37.9876 35.5034 38.14C35.8606 38.7366 36.4134 39.6596 36.7701 40.2558C36.8616 40.4082 37.0104 40.5173 37.1836 40.5584C37.3563 40.5994 37.5385 40.5687 37.6886 40.4732L42.0617 37.6941C42.0627 37.6039 42.0676 37.5124 42.0757 37.4195C42.1659 36.4049 42.7201 35.1973 43.7262 34.2008C44.7322 33.2042 45.9447 32.6618 46.9607 32.581C47.8097 32.5134 48.5547 32.7429 49.1116 33.2136L50.1275 32.5679L48.5038 30.0449Z" fill="#DF1E5A"></path><path fill-rule="evenodd" clip-rule="evenodd" d="M49.3867 28.9185C49.4557 28.8085 49.5445 28.7089 49.6518 28.6245C50.2917 28.1226 51.1787 27.4268 51.7848 26.9511C52.1974 26.6273 52.7651 26.5854 53.2205 26.8451C53.2313 26.851 53.2417 26.8573 53.2525 26.8632C54.3952 27.5138 55.1036 28.725 55.1108 30.04V30.0409C55.114 30.5256 54.8281 30.9653 54.3844 31.1601C53.6787 31.4704 52.6064 31.9412 51.8389 32.278C51.7599 32.3127 51.6792 32.3375 51.5981 32.3537L49.3867 28.9185Z" fill="#DF1E5A"></path><path fill-rule="evenodd" clip-rule="evenodd" d="M22.8351 38.345C23.1584 38.0464 23.5241 37.7728 23.9322 37.5283C24.9477 36.9205 26.5656 36.7112 28.0997 36.8695C29.2397 36.9854 30.3629 36.5295 31.1002 35.6525C31.4379 35.234 31.8519 34.8746 32.3326 34.5869C34.8601 33.0736 38.0121 34.2731 39.6873 37.0716C41.363 39.8701 40.9318 43.215 38.4044 44.7284C37.9237 45.016 37.4114 45.2113 36.8847 45.3196C35.7664 45.5545 34.8366 46.3279 34.4014 47.3848C33.808 48.8084 32.8597 50.1355 31.8442 50.7438C28.353 52.8339 24.4507 51.1483 22.2673 47.5011C22.1072 47.2338 21.9607 46.9636 21.8281 46.6904C23.4019 47.8651 25.6362 47.5643 26.842 46.005C28.0605 44.4285 27.77 42.1599 26.194 40.9415L22.8351 38.345ZM34.0718 40.4337C34.6959 41.4763 34.3564 42.83 33.3138 43.454C32.2712 44.0781 30.9176 43.7386 30.2935 42.696C29.6694 41.653 30.009 40.2998 31.0515 39.6757C32.094 39.0516 33.4478 39.3911 34.0718 40.4337Z" fill="#DF1E5A"></path><path fill-rule="evenodd" clip-rule="evenodd" d="M36.7337 46.7827C36.249 47.0004 35.8584 47.3977 35.6519 47.8997C35.651 47.9014 35.6506 47.9032 35.6497 47.9051C34.9377 49.6137 33.7576 51.1743 32.5387 51.9044C29.6067 53.6598 26.4065 53.2477 23.866 51.3259V53.7423H36.7338V46.7827H36.7337ZM34.971 27.7051H23.4489C22.754 27.7051 22.0974 28.0252 21.6699 28.5731L15.1377 36.9438C14.7684 37.4168 14.6029 38.018 14.6778 38.6136C14.7527 39.2088 15.0615 39.7504 15.5363 40.1174L22.6056 45.5823C23.5909 46.3443 25.0096 46.1626 25.7712 45.1774C26.5332 44.1921 26.3515 42.7734 25.3663 42.0118L20.0904 37.9331L23.866 33.0956V36.0537C25.0673 35.5531 26.6852 35.3633 28.2355 35.5234C28.9272 35.5937 29.6091 35.3187 30.055 34.7929C30.4892 34.2567 31.0205 33.795 31.6373 33.4261C33.9127 32.0638 36.6197 32.3903 38.7332 33.9925L41.2832 32.5567L37.9396 28.9908C37.1703 28.1705 36.0957 27.7051 34.971 27.7051Z" fill="#DF1E5A"></path><path fill-rule="evenodd" clip-rule="evenodd" d="M44.6779 35.162C45.9243 33.9274 47.5571 33.5517 48.3214 34.3233C49.0858 35.0953 48.6948 36.724 47.4484 37.9587C46.2021 39.1933 44.5692 39.569 43.8049 38.797C43.0406 38.0254 43.4316 36.3962 44.6779 35.162Z" fill="#DF1E5A"></path><path fill-rule="evenodd" clip-rule="evenodd" d="M19.526 19.0015H18.6692C18.212 19.0015 17.7736 19.1832 17.4504 19.5065C17.127 19.8299 16.9453 20.2682 16.9453 20.7254V21.427C16.9453 21.7003 17.0535 21.9619 17.247 22.1548C17.4399 22.3478 17.7015 22.4565 17.9748 22.4565H18.6764C19.1337 22.4565 19.572 22.2748 19.8953 21.9515C20.2177 21.629 20.3994 21.1926 20.4003 20.7367C20.4003 20.7353 20.4003 20.729 20.4003 20.729V16.2661L21.6228 17.4886C21.7932 17.6594 22.0705 17.6594 22.241 17.4886C22.4119 17.3181 22.4119 17.0408 22.241 16.8703C22.241 16.8703 21.3608 15.9901 20.7778 15.4066C20.5681 15.1969 20.2524 15.1342 19.9787 15.2478C19.7046 15.3615 19.526 15.6289 19.526 15.9251V19.0015Z" fill="#DF1E5A"></path><path fill-rule="evenodd" clip-rule="evenodd" d="M43.2174 23.4082H42.3606C41.9034 23.4082 41.465 23.5895 41.1418 23.9128C40.8184 24.2362 40.6367 24.6749 40.6367 25.1321V25.8338C40.6367 26.1066 40.7449 26.3686 40.9384 26.5616C41.1314 26.7545 41.3929 26.8632 41.6662 26.8632H42.3678C42.8251 26.8632 43.2634 26.6815 43.5867 26.3582C43.9091 26.0358 44.0908 25.5988 44.0917 25.1434C44.0917 25.1421 44.0917 25.1357 44.0917 25.1357V20.6728L45.3142 21.8953C45.4846 22.0657 45.762 22.0657 45.9324 21.8953C46.1033 21.7249 46.1033 21.4475 45.9324 21.2771C45.9324 21.2771 45.0522 20.3968 44.4692 19.8133C44.2595 19.6036 43.9438 19.541 43.6701 19.6546C43.396 19.7678 43.2174 20.0351 43.2174 20.3319V23.4082Z" fill="#DF1E5A"></path><path fill-rule="evenodd" clip-rule="evenodd" d="M47.1041 46.6779H46.2473C45.7901 46.6779 45.3518 46.8596 45.0285 47.183C44.7051 47.5063 44.5234 47.9446 44.5234 48.4018V49.1039C44.5234 49.3767 44.6321 49.6387 44.8251 49.8317C45.0181 50.0247 45.2796 50.1329 45.5529 50.1329H46.2546C46.7118 50.1329 47.1506 49.9512 47.4734 49.6279C47.7958 49.3059 47.9775 48.869 47.9784 48.4131C47.9784 48.4117 47.9784 48.4054 47.9784 48.4054V43.9425L49.2009 45.1654C49.3718 45.3359 49.6487 45.3359 49.8192 45.1654C49.9901 44.9945 49.9901 44.7177 49.8192 44.5467C49.8192 44.5467 48.9394 43.6665 48.3559 43.0835C48.1462 42.8738 47.8306 42.8111 47.5568 42.9243C47.2827 43.038 47.1041 43.3053 47.1041 43.602V46.6779Z" fill="#DF1E5A"></path></g><defs><clipPath id="clip0_19703_1196"><rect width="41.4857" height="41.4857" fill="white" transform="translate(14.1406 12.2568)"></rect></clipPath></defs></svg>