<svg xmlns="http://www.w3.org/2000/svg" width="75" height="75" viewBox="0 0 75 75" fill="none"><circle cx="37.5" cy="37.5" r="37.5" fill="#DF1E5A" fill-opacity="0.1"></circle><g clip-path="url(#clip0_19703_1197)"><path d="M48.5277 13C47.7502 13 47.1211 13.6292 47.1211 14.4066C47.1211 15.1841 47.7502 15.8132 48.5277 15.8132C55.5084 15.8132 61.1869 21.4917 61.1869 28.4724C61.1869 29.2499 61.816 29.8604 62.5935 29.8604C63.371 29.8604 64.0001 29.2499 64.0001 28.4724C64.0001 19.9408 57.0593 13 48.5277 13Z" fill="#DF1E5A"></path><path d="M48.5277 18.6265C47.7502 18.6265 47.1211 19.2556 47.1211 20.0331C47.1211 20.8105 47.7502 21.4393 48.5277 21.4393C52.4055 21.4393 55.5608 24.5946 55.5608 28.4724C55.5608 29.2499 56.1896 29.8604 56.967 29.8604C57.7445 29.8604 58.3737 29.2499 58.3737 28.4724C58.3737 23.0437 53.9564 18.6265 48.5277 18.6265Z" fill="#DF1E5A"></path><path d="M48.5277 24.2524C47.7502 24.2524 47.1211 24.8816 47.1211 25.6591C47.1211 26.4365 47.7502 27.0657 48.5277 27.0657C49.3037 27.0657 49.9343 27.6963 49.9343 28.4723C49.9343 29.2498 50.5635 29.8602 51.3409 29.8602C52.1184 29.8602 52.7476 29.2498 52.7476 28.4723C52.7476 26.1454 50.8546 24.2524 48.5277 24.2524Z" fill="#DF1E5A"></path><path d="M45.339 30.0645L25.6467 32.8778C24.9546 32.9766 24.4393 33.5699 24.4393 34.2705V53.1252C23.6135 52.7722 22.6636 52.5561 21.6265 52.5561C18.4712 52.5561 16 54.4091 16 56.7759C16 59.1428 18.4712 60.9958 21.6265 60.9958C24.7814 60.9958 27.2526 59.1428 27.2526 56.7759V43.0511L44.1316 40.4539V50.312C43.3058 49.9589 42.3558 49.7429 41.3184 49.7429C38.1635 49.7429 35.6923 51.5959 35.6923 53.9627C35.6923 56.3295 38.1635 58.1826 41.3184 58.1826C44.4736 58.1826 46.9448 56.3295 46.9448 53.9627V31.4572C46.9448 30.5959 46.1765 29.94 45.339 30.0645Z" fill="#DF1E5A"></path></g><defs><clipPath id="clip0_19703_1197"><rect width="48" height="48" fill="white" transform="translate(16 13)"></rect></clipPath></defs></svg>